<?xml version="1.0" standalone="no"?>
<!DOCTYPE svg PUBLIC "-//W3C//DTD SVG 1.1//EN" "http://www.w3.org/Graphics/SVG/1.1/DTD/svg11.dtd" >
<svg xmlns="http://www.w3.org/2000/svg">
<metadata>
This is a custom SVG webfont generated by Font Squirrel.
Copyright   : Copyright c 20022006 Denis A Serikov wwwotlabru  All rights reserved
Designer    : Denis A Serikov
Foundry     : Denis A Serikov
Foundry URL : wwwotlabru
</metadata>
<defs>
<font id="webfontQUh2TAEM" horiz-adv-x="1822" >
<font-face units-per-em="2048" ascent="1638" descent="-410" />
<missing-glyph horiz-adv-x="500" />
<glyph unicode=" " />
<glyph unicode="!" d="M88 258v1122q0 106 75 182t183 76h1122q109 0 183.5 -75.5t74.5 -182.5v-1122q0 -106 -74.5 -182t-183.5 -76h-1122q-109 0 -183.5 76t-74.5 182zM498 1092l110 122v-383h58v461h-58l-110 -131v-69zM506 287h934v749h-217v-102h-103v-103h-102v-102h-103v-102h-102v-103 h-102v-102h-103v-103h-102v-32z" />
<glyph unicode="&#x22;" d="M88 258v1122q0 106 75 182t183 76h1122q109 0 183.5 -75.5t74.5 -182.5v-1122q0 -106 -74.5 -182t-183.5 -76h-1122q-109 0 -183.5 76t-74.5 182zM375 332h1065v41h-33v43h-25v45h-75v573h100v25h33v33l-535 194l-530 -194v-33h31v-25h102v-573h-80v-45h-22v-43h-31v-41z M608 461h131v573h-131v-573zM846 461h127v573h-127v-573zM1085 461h121v573h-121v-573z" />
<glyph unicode="#" d="M88 258v1122q0 106 75 182t183 76h1122q109 0 183.5 -75.5t74.5 -182.5v-1122q0 -106 -74.5 -182t-183.5 -76h-1122q-109 0 -183.5 76t-74.5 182zM469 954q0 -59 39 -95t100 -36q68 0 112 41t44 103q0 90 -88 112q63 29 63 92q0 49 -36.5 87t-94.5 38q-55 0 -97 -36.5 t-42 -94.5h51q0 39 26.5 60.5t61.5 21.5q33 0 53.5 -21.5t20.5 -51.5q0 -37 -27.5 -57.5t-64.5 -20.5v-41h24q39 0 65 -25.5t26 -64.5q0 -41 -28 -68t-69 -27q-88 0 -88 84h-51zM506 287h934v749h-217v-102h-103v-103h-102v-102h-103v-102h-102v-103h-102v-102h-103v-103 h-102v-32z" />
<glyph unicode="$" d="M88 258v1122q0 106 75 182t183 76h1122q109 0 183.5 -75.5t74.5 -182.5v-1122q0 -106 -74.5 -182t-183.5 -76h-1122q-109 0 -183.5 76t-74.5 182zM408 942h200v-111h58v111h32v51h-32v297h-45l-213 -297v-51zM463 993h145v201zM506 287h934v749h-217v-102h-103v-103h-102 v-102h-103v-102h-102v-103h-102v-102h-103v-103h-102v-32z" />
<glyph unicode="%" d="M88 258v1122q0 106 75 182t183 76h1122q109 0 183.5 -75.5t74.5 -182.5v-1122q0 -106 -74.5 -182t-183.5 -76h-1122q-109 0 -183.5 76t-74.5 182zM471 952q0 -59 37 -94t100 -35q76 0 119 56q37 47 37 108q0 66 -40 108t-101 42q-45 0 -86 -29l24 123h178v53h-221 l-47 -244h53q29 47 82 47q45 0 72 -28.5t27 -75.5q0 -51 -26 -80t-71 -29q-84 0 -84 78h-53zM506 287h934v749h-217v-102h-103v-103h-102v-102h-103v-102h-102v-103h-102v-102h-103v-103h-102v-32z" />
<glyph unicode="&#x26;" d="M88 258v1122q0 106 75 182t183 76h1122q109 0 183.5 -75.5t74.5 -182.5v-1122q0 -106 -74.5 -182t-183.5 -76h-1122q-109 0 -183.5 76t-74.5 182zM487 1227h226q-66 -72 -114 -192t-48 -204h57q2 100 54.5 215t121.5 191v47h-297v-57zM506 287h934v749h-217v-102h-103 v-103h-102v-102h-103v-102h-102v-103h-102v-102h-103v-103h-102v-32z" />
<glyph unicode="'" d="M88 258v1122q0 106 75 182t183 76h1122q109 0 183.5 -75.5t74.5 -182.5v-1122q0 -106 -74.5 -182t-183.5 -76h-1122q-109 0 -183.5 76t-74.5 182zM231 287q0 -59 41 -101.5t103 -42.5h1065q59 0 101 42t42 102v1065q0 59 -42 101t-101 42h-1065q-59 0 -101.5 -42 t-42.5 -101v-1065zM375 332v41h31v43h22v45h80v573h-102v25h-31v33l530 194l535 -194v-33h-33v-25h-100v-573h75v-45h25v-43h33v-41h-1065zM608 461h131v573h-131v-573zM846 461h127v573h-127v-573zM1085 461h121v573h-121v-573z" />
<glyph unicode="(" d="M88 258v1122q0 106 75 182t183 76h1122q109 0 183.5 -75.5t74.5 -182.5v-1122q0 -106 -74.5 -182t-183.5 -76h-1122q-109 0 -183.5 76t-74.5 182zM473 1137q0 -68 38 -109t95 -41q68 0 109 60v-11q0 -80 -29 -123t-78 -43q-76 0 -76 68h-51q0 -53 36 -84t91 -31 q164 0 164 246q0 223 -164 223q-61 0 -98 -42.5t-37 -112.5zM506 287h934v749h-217v-102h-103v-103h-102v-102h-103v-102h-102v-103h-102v-102h-103v-103h-102v-32zM524 1137q0 -45 22.5 -73t65.5 -28q41 0 68 28t27 75t-30 76.5t-69 29.5t-61.5 -29.5t-22.5 -78.5z" />
<glyph unicode=")" d="M88 258v1122q0 106 75 182t183 76h1122q109 0 183.5 -75.5t74.5 -182.5v-1122q0 -106 -74.5 -182t-183.5 -76h-1122q-109 0 -183.5 76t-74.5 182zM506 287h934v749h-217v-102h-103v-103h-102v-102h-103v-102h-102v-103h-102v-102h-103v-103h-102v-32z" />
<glyph unicode="*" d="M88 258v1122q0 106 75 182t183 76h1122q109 0 183.5 -75.5t74.5 -182.5v-1122q0 -106 -74.5 -182t-183.5 -76h-1122q-109 0 -183.5 76t-74.5 182zM459 963q0 -61 41 -100.5t108 -39.5q66 0 108 40t42 100q0 88 -86 116q68 27 67 92q0 51 -35.5 86t-95 35t-96.5 -33.5 t-37 -84.5q0 -72 68 -95q-84 -22 -84 -116zM506 287h934v749h-217v-102h-103v-103h-102v-102h-103v-102h-102v-103h-102v-102h-103v-103h-102v-32zM516 963q0 -39 25.5 -66t66.5 -27t66.5 26t25.5 67q0 39 -25.5 66.5t-66.5 27.5t-66.5 -26.5t-25.5 -67.5zM532 1173.5 q0 -30.5 20.5 -51t55.5 -20.5t54.5 19.5t19.5 50t-21.5 52t-54.5 21.5t-53.5 -20.5t-20.5 -51z" />
<glyph unicode="+" d="M88 258v1122q0 106 75 182t183 76h1122q109 0 183.5 -75.5t74.5 -182.5v-1122q0 -106 -74.5 -182t-183.5 -76h-1122q-109 0 -183.5 76t-74.5 182zM375 287h958v145h-24v-121h-910v49l25 -24l534 63v369l-24 35v-381l-485 -60v912l485 -51v-387l24 34v375l-534 58l-25 -15 v39h910v-106h24v131h-958v-1065zM965 819l297 -465h14v123h121v699h-121v108h-14z" />
<glyph unicode="," d="M88 258v1122q0 106 75 182t183 76h1122q109 0 183.5 -75.5t74.5 -182.5v-1122q0 -106 -74.5 -182t-183.5 -76h-1122q-109 0 -183.5 76t-74.5 182zM231 287q0 -59 41 -101.5t103 -42.5h1065q59 0 101 42t42 102v1065q0 59 -42 101t-101 42h-1065q-59 0 -101.5 -42 t-42.5 -101v-1065zM389 291v1061h1051v-1061h-31v1030h-989v-1030h-31zM455 451v81h16v160l18 19l52 254q6 20 37 20h667q31 0 35 -20l53 -254l19 -19v-160h16v-81h-35v-160h-123v160h-598v-160h-123v160h-34zM512 723h801l-51 242h-701zM565 604.5q0 -20.5 13.5 -34 t34 -13.5t33.5 13.5t13 34t-13 32.5t-33.5 12t-34 -12t-13.5 -32.5zM1163 604q0 -20 14.5 -33.5t32.5 -13.5q20 0 35 13.5t15 34t-13.5 32.5t-36.5 12q-18 0 -32.5 -13.5t-14.5 -31.5z" />
<glyph unicode="-" d="M88 258v1122q0 106 75 182t183 76h1122q109 0 183.5 -75.5t74.5 -182.5v-1122q0 -106 -74.5 -182t-183.5 -76h-1122q-109 0 -183.5 76t-74.5 182zM231 287q0 -59 41 -101.5t103 -42.5h1065q59 0 101 42t42 102v1065q0 59 -42 101t-101 42h-1065q-59 0 -101.5 -42 t-42.5 -101v-1065zM391 1102v41q0 92 56.5 150.5t150.5 58.5h162q92 0 148.5 -59.5t56.5 -149.5v-215q-23 -23 -78.5 -66t-78 -67.5t-45 -83t-22.5 -138.5h-143q0 115 25.5 192t69.5 127t128 107v144q0 31 -18.5 48t-42.5 17h-162q-63 0 -63 -65v-41q0 -78 -68 -78h-10 q-66 0 -66 78zM598 287v143h143v-143h-143zM1180 287v143h143v-143h-143zM1180 651v623q0 37 21.5 57.5t50 20.5t50 -20.5t21.5 -57.5v-625q0 -37 -21.5 -56.5t-50.5 -19.5q-31 0 -51 20.5t-20 57.5z" />
<glyph unicode="." d="M88 258v1122q0 106 75 182t183 76h1122q109 0 183.5 -75.5t74.5 -182.5v-1122q0 -106 -74.5 -182t-183.5 -76h-1122q-109 0 -183.5 76t-74.5 182zM231 287q0 -59 41 -101.5t103 -42.5h1065q59 0 101 42t42 102v1065q0 59 -42 101t-101 42h-1065q-59 0 -101.5 -42 t-42.5 -101v-1065zM389 291v336q0 27 19.5 46t46.5 19h344q29 0 48 -18.5t19 -46.5v-336h-118v164h55l-178 172l-170 -172h53v-164h-119zM389 717v33h477v-33h-477zM389 774v578h1051v-1061h-10v401h-535v-401h-10v483h-496zM723 858q0 -51 49 -51h565q49 0 49 49v379 q0 51 -49 51h-565q-49 0 -49 -53v-375zM922 291v69h118v-69h-118zM922 391v121h118v-121h-118zM922 539v120h118v-120h-118zM1104 291v69h119v-69h-119zM1104 391v121h119v-121h-119zM1104 539v120h119v-120h-119zM1282 291v69h119v-69h-119zM1282 391v121h119v-121h-119z M1282 539v120h119v-120h-119z" />
<glyph unicode="/" d="M88 258v1122q0 106 75 182t183 76h1122q109 0 183.5 -75.5t74.5 -182.5v-1122q0 -106 -74.5 -182t-183.5 -76h-1122q-109 0 -183.5 76t-74.5 182zM231 287q0 -59 41 -101.5t103 -42.5h1065q59 0 101 42t42 102v1065q0 59 -42 101t-101 42h-1065q-59 0 -101.5 -42 t-42.5 -101v-1065zM375 483v471l485 244q33 14 47 14q18 0 51 -16l486 -242v-471h-1069zM395 516l486 203l-486 203v-406zM424 504h971l-486 203zM426 954h965l-451 226q-25 8 -33 8t-33 -8zM938 719l485 -203v406z" />
<glyph unicode="0" d="M88 258v1122q0 106 75 182t183 76h1122q109 0 183.5 -75.5t74.5 -182.5v-1122q0 -106 -74.5 -182t-183.5 -76h-1122q-109 0 -183.5 76t-74.5 182zM231 287q0 -59 41 -101.5t103 -42.5h1065q59 0 101 42t42 102v1065q0 59 -42 101t-101 42h-1065q-59 0 -101.5 -42 t-42.5 -101v-1065zM506 287v32h102v103h103v102h102v103h102v102h103v102h102v103h103v102h217v-749h-934z" />
<glyph unicode="1" d="M88 258v1122q0 106 75 182t183 76h1122q109 0 183.5 -75.5t74.5 -182.5v-1122q0 -106 -74.5 -182t-183.5 -76h-1122q-109 0 -183.5 76t-74.5 182zM231 287q0 -59 41 -101.5t103 -42.5h1065q59 0 101 42t42 102v1065q0 59 -42 101t-101 42h-1065q-59 0 -101.5 -42 t-42.5 -101v-1065zM498 1092v69l110 131h58v-461h-58v383zM506 287v32h102v103h103v102h102v103h102v102h103v102h102v103h103v102h217v-749h-934z" />
<glyph unicode="2" d="M88 258v1122q0 106 75 182t183 76h1122q109 0 183.5 -75.5t74.5 -182.5v-1122q0 -106 -74.5 -182t-183.5 -76h-1122q-109 0 -183.5 76t-74.5 182zM231 287q0 -59 41 -101.5t103 -42.5h1065q59 0 101 42t42 102v1065q0 59 -42 101t-101 42h-1065q-59 0 -101.5 -42 t-42.5 -101v-1065zM461 831v60q25 45 104 110q131 106 131 164q0 33 -25.5 56.5t-62.5 23.5q-43 0 -69.5 -25.5t-26.5 -68.5h-51q0 66 40 103.5t107 37.5q66 0 106 -35.5t40 -91.5q-6 -49 -30 -82.5t-108 -107.5q-76 -63 -88 -86h226v-58h-293zM506 287v32h102v103h103v102 h102v103h102v102h103v102h102v103h103v102h217v-749h-934z" />
<glyph unicode="3" d="M88 258v1122q0 106 75 182t183 76h1122q109 0 183.5 -75.5t74.5 -182.5v-1122q0 -106 -74.5 -182t-183.5 -76h-1122q-109 0 -183.5 76t-74.5 182zM231 287q0 -59 41 -101.5t103 -42.5h1065q59 0 101 42t42 102v1065q0 59 -42 101t-101 42h-1065q-59 0 -101.5 -42 t-42.5 -101v-1065zM469 954h51q0 -84 88 -84q41 0 69 27t28 68q0 39 -26 64.5t-65 25.5h-24v41q37 0 64.5 20.5t27.5 57.5q0 31 -20.5 52t-53.5 21q-35 0 -61.5 -21.5t-26.5 -60.5h-51q0 57 42 94t97 37q57 0 94 -37.5t37 -87.5q0 -63 -63 -92q88 -23 88 -112 q0 -61 -44 -102.5t-112 -41.5q-61 0 -100 36t-39 95zM506 287v32h102v103h103v102h102v103h102v102h103v102h102v103h103v102h217v-749h-934z" />
<glyph unicode="4" d="M88 258v1122q0 106 75 182t183 76h1122q109 0 183.5 -75.5t74.5 -182.5v-1122q0 -106 -74.5 -182t-183.5 -76h-1122q-109 0 -183.5 76t-74.5 182zM231 287q0 -59 41 -101.5t103 -42.5h1065q59 0 101 42t42 102v1065q0 59 -42 101t-101 42h-1065q-59 0 -101.5 -42 t-42.5 -101v-1065zM408 942v51l213 297h45v-297h32v-51h-32v-111h-58v111h-200zM463 993h145v201zM506 287v32h102v103h103v102h102v103h102v102h103v102h102v103h103v102h217v-749h-934z" />
<glyph unicode="5" d="M88 258v1122q0 106 75 182t183 76h1122q109 0 183.5 -75.5t74.5 -182.5v-1122q0 -106 -74.5 -182t-183.5 -76h-1122q-109 0 -183.5 76t-74.5 182zM231 287q0 -59 41 -101.5t103 -42.5h1065q59 0 101 42t42 102v1065q0 59 -42 101t-101 42h-1065q-59 0 -101.5 -42 t-42.5 -101v-1065zM471 952h53q0 -78 84 -78q45 0 71 29t26 80q0 47 -27 75.5t-72 28.5q-53 0 -82 -47h-53l47 244h221v-53h-178l-24 -123q41 29 86 29q61 0 101 -42t40 -108q0 -61 -37 -108q-43 -55 -119 -56q-63 0 -100 35t-37 94zM506 287v32h102v103h103v102h102v103 h102v102h103v102h102v103h103v102h217v-749h-934z" />
<glyph unicode="6" d="M88 258v1122q0 106 75 182t183 76h1122q109 0 183.5 -75.5t74.5 -182.5v-1122q0 -106 -74.5 -182t-183.5 -76h-1122q-109 0 -183.5 76t-74.5 182zM231 287q0 -59 41 -101.5t103 -42.5h1065q59 0 101 42t42 102v1065q0 59 -42 101t-101 42h-1065q-59 0 -101.5 -42 t-42.5 -101v-1065zM451 1044q0 133 49 195q41 53 108 53q53 0 93 -36.5t40 -81.5h-53q0 25 -22 47q-23 25 -58 24q-23 0 -45 -16q-55 -41 -55 -162q37 61 110 61q57 0 96.5 -42t39.5 -107q0 -68 -41 -112t-105 -44q-157 0 -157 221zM506 287v32h102v103h103v102h102v103h102 v102h103v102h102v103h103v102h217v-749h-934zM516 979q0 -45 26.5 -77t65.5 -32q37 0 62.5 30t25.5 77t-25.5 74.5t-64.5 27.5t-64.5 -27.5t-25.5 -72.5z" />
<glyph unicode="7" d="M88 258v1122q0 106 75 182t183 76h1122q109 0 183.5 -75.5t74.5 -182.5v-1122q0 -106 -74.5 -182t-183.5 -76h-1122q-109 0 -183.5 76t-74.5 182zM231 287q0 -59 41 -101.5t103 -42.5h1065q59 0 101 42t42 102v1065q0 59 -42 101t-101 42h-1065q-59 0 -101.5 -42 t-42.5 -101v-1065zM487 1227v57h297v-47q-70 -76 -122 -190.5t-54 -215.5h-57q0 84 48 204t114 192h-226zM506 287v32h102v103h103v102h102v103h102v102h103v102h102v103h103v102h217v-749h-934z" />
<glyph unicode="8" d="M88 258v1122q0 106 75 182t183 76h1122q109 0 183.5 -75.5t74.5 -182.5v-1122q0 -106 -74.5 -182t-183.5 -76h-1122q-109 0 -183.5 76t-74.5 182zM231 287q0 -59 41 -101.5t103 -42.5h1065q59 0 101 42t42 102v1065q0 59 -42 101t-101 42h-1065q-59 0 -101.5 -42 t-42.5 -101v-1065zM459 963q0 94 84 116q-68 23 -68 95q0 51 37 84.5t96.5 33.5t95 -34.5t35.5 -86.5q0 -66 -67 -92q86 -29 86 -116q0 -59 -42 -99.5t-108 -40.5q-68 0 -108.5 39.5t-40.5 100.5zM506 287v32h102v103h103v102h102v103h102v102h103v102h102v103h103v102h217 v-749h-934zM516 963q0 -39 25.5 -66t66.5 -27t66.5 26t25.5 67q0 39 -25.5 66.5t-66.5 27.5t-66.5 -26.5t-25.5 -67.5zM532 1173.5q0 -30.5 20.5 -51t55.5 -20.5t54.5 19.5t19.5 50t-21.5 52t-54.5 21.5t-53.5 -20.5t-20.5 -51z" />
<glyph unicode="9" d="M88 258v1122q0 106 75 182t183 76h1122q109 0 183.5 -75.5t74.5 -182.5v-1122q0 -106 -74.5 -182t-183.5 -76h-1122q-109 0 -183.5 76t-74.5 182zM231 287q0 -59 41 -101.5t103 -42.5h1065q59 0 101 42t42 102v1065q0 59 -42 101t-101 42h-1065q-59 0 -101.5 -42 t-42.5 -101v-1065zM473 1137q0 70 37 112.5t98 42.5q164 0 164 -223q0 -246 -164 -246q-55 0 -91 31t-36 84h51q0 -68 76 -68q49 0 78 43t29 123v11q-41 -59 -109 -60q-57 0 -95 41t-38 109zM506 287v32h102v103h103v102h102v103h102v102h103v102h102v103h103v102h217v-749 h-934zM524 1137q0 -45 22.5 -73t65.5 -28q41 0 68 28t27 75t-30 76.5t-69 29.5t-61.5 -29.5t-22.5 -78.5z" />
<glyph unicode=":" d="M88 258v1122q0 106 75 182t183 76h1122q109 0 183.5 -75.5t74.5 -182.5v-1122q0 -106 -74.5 -182t-183.5 -76h-1122q-109 0 -183.5 76t-74.5 182zM395 440h479v86h-356q18 27 37 47q31 31 104 91q102 90 136 127q80 88 79.5 174t-62.5 143t-165 57q-104 0 -165.5 -54 t-69.5 -155l92 -12q0 68 38 108t103 40q59 0 98 -37t39 -88.5t-44 -107.5t-158 -152q-139 -115 -174 -205q-10 -27 -11 -51v-11zM940 614h313v-174h88v174h99v82h-99v467h-69l-332 -467v-82zM1026 696h227v320z" />
<glyph unicode=";" d="M88 258v1122q0 106 75 182t183 76h1122q109 0 183.5 -75.5t74.5 -182.5v-1122q0 -106 -74.5 -182t-183.5 -76h-1122q-109 0 -183.5 76t-74.5 182zM231 287q0 -59 41 -101.5t103 -42.5h1065q59 0 101 42t42 102v1065q0 59 -42 101t-101 42h-1065q-59 0 -101.5 -42 t-42.5 -101v-1065zM395 440v11q0 25 11 51q35 90 174 205q115 96 158.5 152t43.5 107.5t-38.5 88.5t-98.5 37q-66 0 -103.5 -40t-37.5 -108l-92 12q8 100 69.5 154.5t165.5 54.5q102 0 164.5 -57t62.5 -143t-79 -174q-33 -37 -136 -127q-74 -59 -104 -91q-18 -20 -37 -47 h356v-86h-479zM940 614v82l332 467h69v-467h99v-82h-99v-174h-88v174h-313zM1026 696h227v320z" />
<glyph unicode="&#x3c;" d="M88 258v1122q0 106 75 182t183 76h1122q109 0 183.5 -75.5t74.5 -182.5v-1122q0 -106 -74.5 -182t-183.5 -76h-1122q-109 0 -183.5 76t-74.5 182zM389 291h31v1030h989v-1030h31v1061h-1051v-1061zM455 451h34v-160h123v160h598v-160h123v160h35v81h-16v160l-19 19 l-53 254q-4 20 -35 20h-667q-31 0 -37 -20l-52 -254l-18 -19v-160h-16v-81zM512 723h801l-51 242h-701zM565 604.5q0 -20.5 13.5 -34t34 -13.5t33.5 13.5t13 34t-13 32.5t-33.5 12t-34 -12t-13.5 -32.5zM1163 604q0 -20 14.5 -33.5t32.5 -13.5q20 0 35 13.5t15 34 t-13.5 32.5t-36.5 12q-18 0 -32.5 -13.5t-14.5 -31.5z" />
<glyph unicode="=" d="M88 258v1122q0 106 75 182t183 76h1122q109 0 183.5 -75.5t74.5 -182.5v-1122q0 -106 -74.5 -182t-183.5 -76h-1122q-109 0 -183.5 76t-74.5 182zM231 287q0 -59 41 -101.5t103 -42.5h1065q59 0 101 42t42 102v1065q0 59 -42 101t-101 42h-1065q-59 0 -101.5 -42 t-42.5 -101v-1065zM375 287v1065h958v-131h-24v106h-910v-39l25 15l534 -58v-375l-24 -34v387l-485 51v-912l485 60v381l24 -35v-369l-534 -63l-25 24v-49h910v121h24v-145h-958zM965 819l297 465h14v-108h121v-699h-121v-123h-14z" />
<glyph unicode="&#x3e;" d="M88 258v1122q0 106 75 182t183 76h1122q109 0 183.5 -75.5t74.5 -182.5v-1122q0 -106 -74.5 -182t-183.5 -76h-1122q-109 0 -183.5 76t-74.5 182zM389 291h119v164h-53l170 172l178 -172h-55v-164h118v336q0 29 -19.5 47t-47.5 18h-344q-27 0 -46.5 -19.5t-19.5 -45.5 v-336zM389 717h477v33h-477v-33zM389 774h496v-483h10v401h535v-401h10v1061h-1051v-578zM723 858q0 -51 49 -51h565q49 0 49 49v379q0 51 -49 51h-565q-49 0 -49 -53v-375zM922 291h118v69h-118v-69zM922 391h118v121h-118v-121zM922 539h118v120h-118v-120zM1104 291h119 v69h-119v-69zM1104 391h119v121h-119v-121zM1104 539h119v120h-119v-120zM1282 291h119v69h-119v-69zM1282 391h119v121h-119v-121zM1282 539h119v120h-119v-120z" />
<glyph unicode="?" d="M88 258v1122q0 106 75 182t183 76h1122q109 0 183.5 -75.5t74.5 -182.5v-1122q0 -106 -74.5 -182t-183.5 -76h-1122q-109 0 -183.5 76t-74.5 182zM375 483h1069v471l-486 242q-33 16 -51 16q-14 0 -47 -14l-485 -244v-471zM395 516l486 203l-486 203v-406zM424 504h971 l-486 203zM426 954h965l-451 226q-25 8 -33 8t-33 -8zM938 719l485 -203v406z" />
<glyph unicode="@" d="M88 258v1122q0 106 75 182t183 76h1122q109 0 183.5 -75.5t74.5 -182.5v-1122q0 -106 -74.5 -182t-183.5 -76h-1122q-109 0 -183.5 76t-74.5 182zM461 831h293v58h-226q12 23 88 86q84 74 108 107.5t30 82.5q0 55 -40 91t-106 36q-68 0 -107.5 -37.5t-39.5 -103.5h51 q0 43 26.5 68.5t69.5 25.5q37 0 62.5 -23.5t25.5 -56.5q0 -57 -131 -164q-80 -66 -104 -110v-60zM506 287h934v749h-217v-102h-103v-103h-102v-102h-103v-102h-102v-103h-102v-102h-103v-103h-102v-32z" />
<glyph unicode="A" d="M88 258v1122q0 106 75 182t183 76h1122q109 0 183.5 -75.5t74.5 -182.5v-1122q0 -106 -74.5 -182t-183.5 -76h-1122q-109 0 -183.5 76t-74.5 182zM508 395h12v-108h125v108h524v-108h123v108h15v350l-23 398l-18 20h-717l-19 -20l-22 -398v-350zM528 745h349l20 23v354 h-348zM598 535q0 -45 45 -46q20 0 33.5 12.5t13.5 33t-13 34t-33.5 13.5t-33 -13.5t-12.5 -33.5zM918 768l20 -23h348l-20 377h-348v-354zM1124 535q0 -45 45 -46q20 0 34 12.5t14 33t-13.5 34t-34 13.5t-33 -13.5t-12.5 -33.5z" />
<glyph unicode="B" d="M88 258v1122q0 106 75 182t183 76h1122q109 0 183.5 -75.5t74.5 -182.5v-1122q0 -106 -74.5 -182t-183.5 -76h-1122q-109 0 -183.5 76t-74.5 182zM508 395h12v-108h125v108h524v-108h123v108h15v350l-23 398l-18 20h-248l272 178h53v11h-92v-11h6l-276 -178h-147l272 178 h39v11h-78v-11h6l-276 -178h-248l-19 -20l-22 -398v-350zM528 745h349l20 23v354h-348zM598 535q0 -45 45 -46q20 0 33.5 12.5t13.5 33t-13 34t-33.5 13.5t-33 -13.5t-12.5 -33.5zM918 768l20 -23h348l-20 377h-348v-354zM1124 535q0 -45 45 -46q20 0 34 12.5t14 33 t-13.5 34t-34 13.5t-33 -13.5t-12.5 -33.5z" />
<glyph unicode="C" d="M88 258v1122q0 106 75 182t183 76h1122q109 0 183.5 -75.5t74.5 -182.5v-1122q0 -106 -74.5 -182t-183.5 -76h-1122q-109 0 -183.5 76t-74.5 182zM551 453q0 -63 51 -114.5t154 -51.5h69v131h164v-131h74q104 0 154.5 51t50.5 115v186q0 102 -32 220t-71 196 q-68 49 -145 49v20h-21v217h64v11h-307v-11h59v-217h-20v-20q-86 0 -142 -49q-41 -72 -71.5 -191t-30.5 -225v-186zM580 684h102v348h-4q-39 -20 -72 -153q-26 -107 -26 -195zM692 493.5q0 -16.5 11.5 -28.5t28 -12t28.5 12t12 28.5t-12 29t-28.5 12.5t-28 -12.5t-11.5 -29z M692 684h430v348h-430v-348zM825 1124h164v217h-164v-217zM842 309l45 -22h43l41 22v31l-72 -16h-57v-15zM842 350h57l72 17v10l-41 22h-43l-45 -22v-27zM1042 493.5q0 -16.5 11.5 -28.5t28 -12t28.5 12t12 28.5t-12 29t-28.5 12.5t-28 -12.5t-11.5 -29zM1133 684h108 q0 80 -29 195q-33 133 -73 153h-6v-348z" />
<glyph unicode="D" d="M88 258v1122q0 106 75 182t183 76h1122q109 0 183.5 -75.5t74.5 -182.5v-1122q0 -106 -74.5 -182t-183.5 -76h-1122q-109 0 -183.5 76t-74.5 182zM410 420q0 -55 38.5 -94t94.5 -39h266v164h184v-164h279q49 0 89 37.5t40 89.5v813q0 45 -40 85t-89 40h-729 q-53 0 -93 -40t-40 -87v-805zM485 614q0 -20 17.5 -38.5t40.5 -18.5h731q18 0 32.5 17.5t14.5 39.5v609q0 25 -13.5 43t-35.5 18h-729q-23 0 -40.5 -18.5t-17.5 -42.5v-609zM506 614v609q0 14 11 27.5t26 13.5h729q29 0 28 -41v-609q0 -12 -8 -24t-20 -12h-729 q-14 0 -25.5 12t-11.5 24zM543 471q0 -45 45 -45q20 0 33.5 12.5t13.5 33t-13.5 33.5t-34 13t-32.5 -13.5t-12 -33.5zM543 764q0 -16 12 -28.5t29 -12.5h51q16 0 28.5 12.5t12.5 28.5v418q0 18 -12.5 29.5t-28.5 11.5h-51q-16 0 -28.5 -11.5t-12.5 -29.5v-418zM643 416 q0 -33 31 -33q33 0 33 33q0 14 -9.5 24.5t-23.5 10.5q-31 0 -31 -35zM707 686q0 -14 13 -27.5t28 -13.5h319q14 0 27.5 13.5t13.5 27.5v496q0 14 -13.5 27.5t-27.5 13.5h-319q-14 0 -27.5 -13.5t-13.5 -27.5v-496zM838 326l45 -23h43l41 23v30l-72 -16h-57v-14zM838 367h57 l72 16v10l-41 23h-43l-45 -23v-26zM1108 416q0 -33 31 -33q33 0 32 33q0 14 -9 24.5t-23 10.5q-31 0 -31 -35zM1139 764q0 -16 12 -28.5t29 -12.5h51q16 0 28.5 12.5t12.5 28.5v418q0 18 -12.5 29.5t-28.5 11.5h-51q-16 0 -28.5 -11.5t-12.5 -29.5v-418zM1180 471 q0 -45 45 -45q20 0 33.5 12.5t13.5 33t-13.5 33.5t-34 13t-32.5 -13.5t-12 -33.5z" />
<glyph unicode="E" d="M88 258v1122q0 106 75 182t183 76h1122q109 0 183.5 -75.5t74.5 -182.5v-1122q0 -106 -74.5 -182t-183.5 -76h-1122q-109 0 -183.5 76t-74.5 182zM375 473h41v-186h143v186h701v-186h143v186h41v98l-21 -2v189l-20 20l-62 299q-8 23 -41 23h-782q-35 0 -41 -23l-61 -299 l-21 -20v-189h-20v-96zM442 793h934l-57 284h-819zM504 653.5q0 -22.5 16.5 -39t39 -16.5t38.5 16.5t16 39t-16 39t-38.5 16.5t-39 -16.5t-16.5 -39zM559 1128h701l-31 146h-639zM631 1208v41h41v-41h41v-41h-41v41h-41zM713 1208h41v-41h41v41h-41v41h-41v-41zM862 1208.5 q0 16.5 12.5 28.5t29 12t28.5 -12t12 -28.5t-12 -29t-28.5 -12.5t-29 12.5t-12.5 29zM889 1225h12v-33h4v33h13v4h-29v-4zM1020 1167h41v41h-41v-41zM1061 1208h41v-41h41v41h-41v41h-41v-41zM1143 1208h41v41h-41v-41zM1204 653.5q0 -22.5 16.5 -39t39 -16.5t39 16.5 t16.5 39t-16.5 39t-39 16.5t-39 -16.5t-16.5 -39z" />
<glyph unicode="F" d="M88 0v248q4 -100 74.5 -172t173.5 -76h-248zM88 819v561q0 106 75 182t183 76h1122q109 0 183.5 -75.5t74.5 -182.5v-1122q0 -106 -74.5 -182t-183.5 -76h-561v143h-532q-27 0 -37 4l1036 1037q25 25 25 53q0 31 -22.5 52.5t-51.5 21.5t-49 -21l-1040 -1040q-4 10 -5 37 v532h-143z" />
<glyph unicode="G" d="M88 258v1122q0 106 75 182t183 76h1122q109 0 183.5 -75.5t74.5 -182.5v-561h-143v-532q0 -27 -4 -37l-1036 1036q-25 25 -54 25q-31 0 -52 -22.5t-21 -51.5t20 -49l1041 -1041q-10 -4 -37 -4h-533v-143h-561q-109 0 -183.5 76t-74.5 182zM1479 0q102 4 172.5 75.5 t74.5 172.5v-248h-247z" />
<glyph unicode="H" d="M88 258v561h143v533q0 27 5 37l1036 -1037q25 -25 53 -24q31 0 52.5 22.5t21.5 51t-21 49.5l-1040 1040q10 4 37 4h532v143h561q109 0 183.5 -75.5t74.5 -182.5v-1122q0 -106 -74.5 -182t-183.5 -76h-1122q-109 0 -183.5 76t-74.5 182zM88 1391v247h248 q-102 -4 -173 -75.5t-75 -171.5z" />
<glyph unicode="I" d="M88 258v1122q0 106 75 182t183 76h561v-143h533q27 0 37 -4l-1037 -1036q-25 -25 -24 -54q0 -31 22.5 -52t51 -21t49.5 20l1040 1041q4 -10 4 -37v-533h143v-561q0 -106 -74.5 -182t-183.5 -76h-1122q-109 0 -183.5 76t-74.5 182zM1479 1638h247v-247q-4 100 -74.5 171.5 t-172.5 75.5z" />
<glyph unicode="J" d="M88 258v1122q0 106 75 182t183 76h1122q109 0 183.5 -75.5t74.5 -182.5v-1122q0 -106 -74.5 -182t-183.5 -76h-1122q-109 0 -183.5 76t-74.5 182zM356 473q0 -29 23 -51l346 -346q74 -76 182 -76q106 0 183 76l346 346q23 23 22 49q0 29 -22.5 52.5t-51 23.5t-51.5 -23 l-325 -325q-23 -23 -29 -25v1083q0 33 -21.5 52.5t-50 19.5t-50 -19.5t-21.5 -52.5v-1083q-6 2 -29 25l-326 325q-23 23 -51.5 23t-51 -22.5t-22.5 -51.5z" />
<glyph unicode="K" d="M88 258v1122q0 106 75 182t183 76h1122q109 0 183.5 -75.5t74.5 -182.5v-1122q0 -106 -74.5 -182t-183.5 -76h-1122q-109 0 -183.5 76t-74.5 182zM356 1165.5q0 -28.5 22.5 -51t51.5 -22.5t51 22l326 326q23 23 29 24v-1083q0 -33 21.5 -52.5t50 -19.5t50 19.5t21.5 52.5 v1083q6 -2 29 -24l325 -326q23 -23 51.5 -22.5t51 24t22.5 51.5q0 27 -22 50l-346 346q-76 76 -183 75q-109 0 -182 -75l-346 -346q-23 -23 -23 -51.5z" />
<glyph unicode="L" d="M88 258v1122q0 106 75 182t183 76h1122q109 0 183.5 -75.5t74.5 -182.5v-1122q0 -106 -74.5 -182t-183.5 -76h-1122q-109 0 -183.5 76t-74.5 182zM397 819.5q0 -28.5 19.5 -50t52.5 -21.5h1083q-2 -6 -24 -29l-326 -326q-23 -23 -22.5 -51.5t24 -51t51.5 -22.5 q27 0 50 23l346 346q76 76 75 182q0 109 -75 182l-346 347q-23 23 -51.5 22.5t-51 -23t-22.5 -51t22 -51.5l326 -325q23 -23 24 -29h-1083q-33 0 -52.5 -21.5t-19.5 -50z" />
<glyph unicode="M" d="M88 258v1122q0 106 75 182t183 76h1122q109 0 183.5 -75.5t74.5 -182.5v-1122q0 -106 -74.5 -182t-183.5 -76h-1122q-109 0 -183.5 76t-74.5 182zM88 819q0 -106 76 -182l346 -346q23 -23 49 -23q29 0 52.5 22.5t23.5 51.5t-23 51l-325 326q-23 23 -25 29h1084 q33 0 52 21.5t19 50t-19.5 50t-51.5 21.5h-1084q2 6 25 29l325 325q23 23 23 51.5t-22.5 51t-51.5 22.5t-51 -22l-346 -347q-76 -73 -76 -182z" />
<glyph unicode="N" d="M88 258v1122q0 106 75 182t183 76h1122q109 0 183.5 -75.5t74.5 -182.5v-1122q0 -106 -74.5 -182t-183.5 -76h-1122q-109 0 -183.5 76t-74.5 182zM375 692h407v-405h250v405h408v250h-408v410h-250v-410h-407v-250z" />
<glyph unicode="O" d="M88 258v1122q0 106 75 182t183 76h1122q109 0 183.5 -75.5t74.5 -182.5v-1122q0 -106 -74.5 -182t-183.5 -76h-1122q-109 0 -183.5 76t-74.5 182zM377 1194q0 -115 129 -168v-598q-18 -23 -18.5 -57.5t20 -59t49.5 -24.5t50.5 24.5t21.5 59.5q0 31 -17 53v602 q125 53 125 170q0 51 -29.5 94t-78.5 62v-123l-70 -37l-72 39v121q-51 -20 -80.5 -63.5t-29.5 -94.5zM530 367q0 -37 29 -37t29 37q0 39 -29 39t-29 -39zM870 1192l7 -6h174v-899h159v899h230v45q-131 53 -230 121h-333l-7 -6v-154z" />
<glyph unicode="P" d="M88 258v1122q0 106 75 182t183 76h1122q109 0 183.5 -75.5t74.5 -182.5v-1122q0 -106 -74.5 -182t-183.5 -76h-1122q-109 0 -183.5 76t-74.5 182zM375 354q49 0 89 -8t80 -20.5t66 -16.5v-22h604v22q27 4 64 16.5t75 20.5t87 8v15h-1065v-15zM610 510q0 -43 30 -73.5 t73 -30.5v-23h399v23q41 0 71.5 31.5t30.5 72.5v59q29 -14 52 -14q37 0 66.5 53.5t29.5 112.5q0 98 -78 98q-49 0 -70 -12v76h-604v-373zM690 1042q0 -49 23 -94l20 -20q-16 47 -16 100q0 41 15.5 115t15.5 108q0 39 -15 80l-20 21q12 -35 12 -82q0 -41 -17.5 -117 t-17.5 -111zM895 1022q0 -49 23 -94l20 -21q-16 47 -16 101q0 41 15 114.5t15 108.5q0 39 -14 80l-20 20q12 -35 12 -82q0 -41 -17.5 -116.5t-17.5 -110.5zM1085 1042q0 -49 23 -94l20 -20q-16 47 -16 100q0 41 15.5 115t15.5 108q0 39 -15 80l-20 21q12 -35 12 -82 q0 -41 -17.5 -117t-17.5 -111zM1214 604q14 -18 52 -18q20 0 42.5 41t22.5 92q0 70 -47 69q-57 0 -70 -18v-166z" />
<glyph unicode="Q" d="M88 258v1122q0 106 75 182t183 76h1122q109 0 183.5 -75.5t74.5 -182.5v-1122q0 -106 -74.5 -182t-183.5 -76h-1122q-109 0 -183.5 76t-74.5 182zM375 442q0 -66 47 -110.5t112.5 -44.5t112.5 45t47 110q0 84 -73 133v480q74 49 73 133q0 68 -46 116t-111.5 48 t-113.5 -49.5t-48 -114.5q0 -92 80 -135v-475q-80 -44 -80 -136zM598 360l14 9q35 35 35 86q0 12 -6 28l-10 -2q4 -8 4 -24q0 -52 -37 -97zM598 1282q43 -18 43 -80q0 -20 -2 -33l4 2q10 16 10 39q0 68 -53 76zM723 317q84 -31 184 -30q166 0 301 90t197 237h41v50h-25 q25 70 25 153q0 221 -159 378t-380 157q-92 0 -184 -33v-23q94 35 184 35q215 0 366.5 -150.5t151.5 -363.5q0 -84 -24 -153h-350v-50h331q-59 -137 -188 -222t-287 -85q-92 0 -184 33v-23zM743 451q0 -33 25 -56.5t59.5 -23.5t60 23.5t25.5 56t-25.5 57t-60 24.5t-59.5 -23 t-25 -58zM743 1180q0 -33 25 -56.5t59.5 -23.5t60 23.5t25.5 56t-25.5 57.5t-60 25t-59.5 -23.5t-25 -58.5zM754 450.5q0 -28.5 21.5 -49t52 -20.5t53 20.5t22.5 49t-22.5 50t-53 21.5t-52 -21.5t-21.5 -50zM754 1179.5q0 -28.5 21.5 -49t52 -20.5t53 20.5t22.5 49t-22.5 50 t-53 21.5t-52 -21.5t-21.5 -50zM997 498q0 -33 25 -56.5t59.5 -23.5t60 23.5t25.5 56t-25.5 57.5t-60 25t-59.5 -23.5t-25 -58.5zM997 1137q0 -33 25 -56.5t59.5 -23.5t60 23.5t25.5 56t-25.5 57.5t-60 25t-59.5 -23.5t-25 -58.5zM1008 497.5q0 -28.5 21.5 -49t52 -20.5 t53 20.5t22.5 49t-22.5 50t-53 21.5t-52 -21.5t-21.5 -50zM1008 1136.5q0 -28.5 21.5 -49t52 -20.5t53 20.5t22.5 49t-22.5 50t-53 21.5t-52 -21.5t-21.5 -50zM1155 930q0 -33 24.5 -56.5t59.5 -23.5t60.5 23.5t25.5 56.5t-25.5 57.5t-60.5 24.5t-59.5 -23.5t-24.5 -58.5z M1165 929.5q0 -28.5 21.5 -49t52.5 -20.5t53.5 20.5t22.5 49t-22.5 50t-53.5 21.5t-52.5 -21.5t-21.5 -50z" />
<glyph unicode="R" d="M88 258v1122q0 106 75 182t183 76h1122q109 0 183.5 -75.5t74.5 -182.5v-1122q0 -106 -74.5 -182t-183.5 -76h-1122q-109 0 -183.5 76t-74.5 182zM375 805l112 -133l226 180l-33 -565q57 14 119 14q43 0 130 -9t134 -9q51 0 78 4l-31 573l229 -186l101 131l-330 264h-94 l-12 43h-76v6q0 45 14 45q35 0 53.5 25.5t18.5 60.5q0 41 -25.5 70t-77.5 29q-94 0 -94 -99q0 -16 14 -16q16 0 17 16q0 35 13 51.5t50 16.5q72 0 72 -68q0 -57 -55 -57q-31 0 -31 -74v-6h-82l-14 -43h-88z" />
<glyph unicode="S" d="M88 258v1122q0 106 75 182t183 76h1122q109 0 183.5 -75.5t74.5 -182.5v-1122q0 -106 -74.5 -182t-183.5 -76h-1122q-109 0 -183.5 76t-74.5 182zM375 819l49 -51h25l20 -20l45 20h18l29 -20h25l22 20h17l12 -14l51 14l35 -20l45 20h20l25 -14l33 14l16 -20h10l19 20 l12 -10l17 10l10 -12h18l19 12v-29h120v-86q0 -20 16.5 -35.5t39.5 -15.5h246q23 0 40 15.5t17 35.5v324q0 20 -17.5 34.5t-39.5 14.5h-246q-23 0 -39.5 -15.5t-16.5 -33.5v-64h-120v-28h-518l-74 -45v-6h661v-15h-661zM1309 819h63v103h-63v-103z" />
<glyph unicode="T" d="M88 258v1122q0 106 75 182t183 76h1122q109 0 183.5 -75.5t74.5 -182.5v-1122q0 -106 -74.5 -182t-183.5 -76h-1122q-109 0 -183.5 76t-74.5 182zM596 776q0 -125 88 -212t215 -87t216 87t89 212q0 94 -54 170t-140 109v41h-58v116h27q49 16 94 17q39 0 88 -17h43v101 h-41q-45 -23 -88 -23q-45 0 -96 23h-27v12h-106v-12h-31q-49 -23 -90 -23q-45 0 -94 23h-35v-101h35q53 16 96 17q45 0 90 -17h29v-116h-58v-41q-86 -33 -139 -109t-53 -170zM657 776q0 -98 71 -167.5t171 -69.5t172 69.5t72 167.5t-72 169t-172 71t-171 -71t-71 -169z M846 338q0 -20 16.5 -35.5t37 -15.5t36.5 14t16 35q0 23 -20.5 78t-32.5 55t-32.5 -53t-20.5 -78zM899 297q45 2 47 39h-2q-2 -10 -7 -15.5t-17.5 -10.5t-16.5 -7z" />
<glyph unicode="U" d="M88 258v1122q0 106 75 182t183 76h1122q109 0 183.5 -75.5t74.5 -182.5v-1122q0 -106 -74.5 -182t-183.5 -76h-1122q-109 0 -183.5 76t-74.5 182zM375 356.5q0 -32.5 18.5 -51t42.5 -18.5h426q25 0 43.5 18.5t18.5 51t-18.5 51t-43.5 18.5h-426q-25 0 -43 -18.5t-18 -51z M406 514q0 -29 18 -48.5t43 -19.5h364q25 0 43.5 18.5t18.5 49.5t-18.5 51.5t-43.5 20.5h-364q-25 0 -43 -20.5t-18 -51.5zM436 676q0 -29 18.5 -49.5t43.5 -20.5h303q25 0 43 19.5t18 48.5q0 31 -18.5 51t-42.5 20h-303q-25 0 -43.5 -20t-18.5 -49zM467 836 q0 -31 18.5 -50.5t42.5 -19.5h242q25 0 43 19.5t18 50.5q0 29 -18 49t-43 20h-242q-23 0 -42 -21t-19 -48zM498 995q0 -31 18.5 -50t42.5 -19h180q25 0 43.5 19.5t18.5 49.5q0 27 -19.5 48.5t-42.5 21.5h-180q-23 0 -42 -21.5t-19 -48.5zM514 1220.5q0 -55.5 40 -95.5 t95.5 -40t95 40t39.5 95.5t-39.5 95.5t-95 40t-95.5 -40t-40 -95.5zM913 543q0 -106 77 -181t186 -75q121 0 198 88q-12 84 -54 122t-93 44l-102 12q-50 6 -88 47t-44 127q-80 -75 -80 -184zM1004 735q6 -86 42.5 -125t87.5 -45l101 -12q51 -6 93 -45t54 -125q55 72 56 160 q0 106 -77 181t-185 75q-98 -1 -172 -64z" />
<glyph unicode="V" d="M88 258v1122q0 106 75 182t183 76h1122q109 0 183.5 -75.5t74.5 -182.5v-1122q0 -106 -74.5 -182t-183.5 -76h-1122q-109 0 -183.5 76t-74.5 182zM508 287h756v32h-260v564h65l35 14q14 -37 14 -92q0 -35 -15.5 -107.5t-15.5 -134.5q0 -80 28 -123t77 -43q96 0 96 158 q0 72 -24.5 226.5t-24.5 222.5q0 35 2 51l23 125l-27 28l4 2v17h-18l-62 69l-18 -18l43 -51h-68v80q0 20 -16.5 34.5t-34.5 14.5h-455q-16 0 -29.5 -14.5t-13.5 -30.5v-381q0 -16 13.5 -31.5t29.5 -15.5h72v-564h-176v-32zM643 961h404v319h-404v-319zM1118 559 q0 -129 74 -129q63 0 63 127q0 68 -26.5 231.5t-26.5 233.5q0 31 6 49l6 39q-25 23 -24 64v18l-72 -25v-225q33 -55 33 -127q0 -43 -16.5 -129t-16.5 -127zM1204 1169q0 -23 15 -39l6 41l-17 27q-4 -25 -4 -29z" />
<glyph unicode="W" d="M88 258v1122q0 106 75 182t183 76h1122q109 0 183.5 -75.5t74.5 -182.5v-1122q0 -106 -74.5 -182t-183.5 -76h-1122q-109 0 -183.5 76t-74.5 182zM375 354q49 0 89 -8t80 -20.5t66 -16.5v-22h604v22q27 4 64 16.5t75 20.5t87 8v15h-1065v-15zM375 471q0 -25 10 -25 q41 0 121 209q43 117 63 209v6q-29 0 -47 19q-51 -90 -92 -203q-55 -158 -55 -215zM526 897q20 -20 45 -20l2 8q8 25 25.5 95.5t32.5 102.5q2 6 40 16.5t46 37.5q33 104 71 188l-8 4q-53 -88 -78 -180l-14 4q16 72 82 182l-10 4q-37 -51 -92 -178l-13 4q20 72 93 183l-11 4 q-68 -90 -100 -181l-10 5q20 74 96 182l-8 4q-76 -92 -107 -180l-10 4q31 88 102 182l-6 4q-86 -94 -119 -194l-2 -7q0 -10 14.5 -32.5t14.5 -34.5q0 -6 -2 -10q-8 -25 -74 -197zM674 389q135 0 205 14q20 4 32 5q20 0 72.5 -9.5t85.5 -9.5h66l-193 662q-6 6 -16 6 q-25 0 -35 -17q-6 -8 -14 -8q-4 0 -13.5 2t-15.5 2q-12 0 -21 -12zM694 410q37 -4 56 -4q63 0 124 20q63 94 64 248q0 180 -78 336q-4 10 -14 10q-6 0 -12 -10zM868 1010q74 -174 74 -330q0 -131 -53 -256q8 2 22 2q31 0 81 -8t77 -8h41l-176 634q-17 -34 -66 -34z M1059 1317q0 -123 182 -432l4 -11q20 0 43 23q-23 61 -50.5 148.5t-42.5 131.5t-33.5 92t-34 71.5t-31.5 31.5q-37 0 -37 -55zM1247 866l2 -4q25 -109 64 -213q78 -203 117 -203q10 0 10 25q0 57 -56 215q-41 113 -92 203q-22 -23 -45 -23z" />
<glyph unicode="X" d="M88 258v1122q0 106 75 182t183 76h1122q109 0 183.5 -75.5t74.5 -182.5v-1122q0 -106 -74.5 -182t-183.5 -76h-1122q-109 0 -183.5 76t-74.5 182zM375 1171l94 -725h35l-39 -159h39l84 159h260l65 -159h45l-30 159h39l30 207q39 6 39 62q0 27 -14 46t-39 19h-410l-41 256 q-14 88 -48.5 111.5t-108.5 23.5zM1006 1004q92 -10 170 -11v-676l-121 -14v-16h282v16l-123 14v676q76 0 172 11l-38 352h-299z" />
<glyph unicode="Y" d="M88 258v1122q0 106 75 182t183 76h1122q109 0 183.5 -75.5t74.5 -182.5v-1122q0 -106 -74.5 -182t-183.5 -76h-1122q-109 0 -183.5 76t-74.5 182zM375 918l117 112l634 -635l-106 -108h420v432l-111 -103l-627 627l111 109h-438v-434zM410 1192q0 -53 37.5 -92t91 -39 t91.5 39t38 92t-38 92t-91.5 39t-91 -39t-37.5 -92zM463 1174l2 14h12v14h-14l2 15h12q10 35 35 49q20 10 38.5 10t35.5 -10l-4 -19q-16 10 -31 10q-16 0 -31 -10q-4 -2 -12 -14q-6 -8 -8 -16h75l-4 -15h-71v-14h69l-4 -14h-63q2 -27 20 -37q12 -6 27 -7q18 0 33 11v-23 q-16 -6 -31 -6q-49 0 -66 41q-4 12 -6 21h-16zM772 840h23v65h39q57 0 57 47q0 37 -37 45q-6 2 -25 2h-57v-159zM795 924v57h36q16 0 19 -2q18 -4 18 -27q0 -29 -37 -28h-36zM877 879l43 -117q-6 -16 -9 -19q-2 -8 -14 -8h-10l2 -16q4 -2 12 -2q16 0 27 16l12 25l41 121h-20 l-25 -70q-2 -4 -5 -11t-3 -10l-31 91h-20zM965 707q0 -47 12 -65.5t43 -18.5q55 0 55 61q0 27 -15.5 43t-40 16t-40.5 -24q0 27 9 37t42 10q20 0 26.5 1t10.5 5t6 14l-45 -2q-33 0 -48 -17t-15 -60zM985 680q0 45 35 45t35 -41q0 -43 -35 -43t-35 39zM1161 452.5 q0 -53.5 38 -92t91 -38.5t91 38.5t38 92t-38 92.5t-91 39t-91 -39t-38 -92.5zM1245 420l21 2q2 -14 6 -21q8 -8 20 -8v56q-8 2 -24 10q-18 10 -19 33q0 20 15 32q6 8 28 11v8h13v-8q18 -4 24 -11q12 -10 17 -28l-21 -2q-4 16 -20 20v-47q14 -4 18 -6q27 -14 27 -41 q0 -18 -13.5 -31.5t-31.5 -13.5v-23h-13v21q-47 0 -47 47zM1270 494q0 -16 22 -25v47q-22 -2 -22 -22zM1305 393q25 0 24 27q0 14 -24 24v-51z" />
<glyph unicode="Z" d="M88 258v1122q0 106 75 182t183 76h1122q109 0 183.5 -75.5t74.5 -182.5v-1122q0 -106 -74.5 -182t-183.5 -76h-1122q-109 0 -183.5 76t-74.5 182zM375 287h1065v835h-295v-200h198v-578h-968v-57zM416 383l10 -8h100l11 8v285l-11 8h-34v4h-3v25q0 8 -10 8t-10 -8v-25h-2 v-4h-41l-10 -8v-285zM567 383l11 -8h81l11 8v373l-11 8h-26v2h-4v25q0 14 -13 14q-10 0 -10 -14v-25h-4v-2h-24l-11 -8v-373zM692 387l10 -10h439l10 10v258l-10 8h-160v4h-8q0 27 -14.5 37.5t-51.5 10.5t-50 -10.5t-13 -37.5h-10v-4h-132l-10 -8v-258zM858 657h100 q0 18 -9 25.5t-42 7.5q-31 0 -40 -7.5t-9 -25.5zM1159 991h107l20 80l19 -80h122v117h-268v-117zM1171 1075v23h248v-23h-6v6h-235v-6h-7z" />
<glyph unicode="[" d="M88 258v1122q0 106 75 182t183 76h1122q109 0 183.5 -75.5t74.5 -182.5v-1122q0 -106 -74.5 -182t-183.5 -76h-1122q-109 0 -183.5 76t-74.5 182zM231 287q0 -59 41 -101.5t103 -42.5h1065q59 0 101 42t42 102v1065q0 59 -42 101t-101 42h-1065q-59 0 -101.5 -42 t-42.5 -101v-1065zM375 1298q0 18 26 19q20 0 58 -19q43 0 63 -20l242 -242l565 23v-64l-403 -121l315 -315l162 49l37 -43l-97 -73l76 -19l-6 -29h-131l-84 -112h-22v139l-332 332l-109 -471l-57 -2v639l-252 252q-51 50 -51 77z" />
<glyph unicode="\" d="M88 258v1122q0 106 75 182t183 76h1122q109 0 183.5 -75.5t74.5 -182.5v-1122q0 -106 -74.5 -182t-183.5 -76h-1122q-109 0 -183.5 76t-74.5 182zM231 287q0 -59 41 -101.5t103 -42.5h1065q59 0 101 42t42 102v1065q0 59 -42 101t-101 42h-1065q-59 0 -101.5 -42 t-42.5 -101v-1065zM375 1141q0 16 20.5 16t20.5 -16l78 -103l919 -30l-110 -353h-627l-203 383l-65 88h-13q-20 1 -20 15zM508 1018l178 -338h600l100 305zM553 371q0 35 25.5 60.5t62.5 25.5t62.5 -25.5t25.5 -60.5t-25.5 -59.5t-62.5 -24.5t-62.5 24.5t-25.5 59.5z M578 370.5q0 -26.5 18 -45t45 -18.5t45.5 18.5t18.5 45t-18.5 45t-45.5 18.5t-45 -18.5t-18 -45zM762 397v29q98 104 227 104q111 0 213 -104v-29q-102 104 -213 105q-106 -1 -227 -105zM1237 371q0 35 25.5 60.5t62.5 25.5t62.5 -25.5t25.5 -60.5t-25.5 -59.5t-62.5 -24.5 t-62.5 24.5t-25.5 59.5zM1262 370.5q0 -26.5 18 -45t45 -18.5t45.5 18.5t18.5 45t-18.5 45t-45.5 18.5t-45 -18.5t-18 -45z" />
<glyph unicode="]" d="M88 258v1122q0 106 75 182t183 76h1122q109 0 183.5 -75.5t74.5 -182.5v-1122q0 -106 -74.5 -182t-183.5 -76h-1122q-109 0 -183.5 76t-74.5 182zM231 287q0 -59 41 -101.5t103 -42.5h1065q59 0 101 42t42 102v1065q0 59 -42 101t-101 42h-1065q-59 0 -101.5 -42 t-42.5 -101v-1065zM375 965h35l159 -445h871v-35h-891zM553 371q0 35 25.5 60.5t62.5 25.5t62.5 -25.5t25.5 -60.5t-25.5 -59.5t-62.5 -24.5t-62.5 24.5t-25.5 59.5zM578 370.5q0 -26.5 18 -45t45 -18.5t45.5 18.5t18.5 45t-18.5 45t-45.5 18.5t-45 -18.5t-18 -45zM592 553 v285l10 8h41v4h2v24q0 8 10.5 8.5t10.5 -8.5v-24h2v-4h34l11 -8v-285l-11 -8h-100zM743 553v373l11 8h24v2h4v25q0 14 11 14q12 0 12 -14v-25h4v-2h27l10 -8v-373l-10 -8h-82zM887 555v258l10 8h131v4h10q0 27 13.5 37t50.5 10t51 -10t14 -37h9v-4h159l11 -8v-258l-11 -10 h-438zM1053 825h100q0 18 -9 25.5t-42 7.5q-31 0 -40 -7.5t-9 -25.5zM1237 371q0 35 25.5 60.5t62.5 25.5t62.5 -25.5t25.5 -60.5t-25.5 -59.5t-62.5 -24.5t-62.5 24.5t-25.5 59.5zM1262 370.5q0 -26.5 18 -45t45 -18.5t45.5 18.5t18.5 45t-18.5 45t-45.5 18.5t-45 -18.5 t-18 -45z" />
<glyph unicode="^" d="M88 258v1122q0 106 75 182t183 76h1122q109 0 183.5 -75.5t74.5 -182.5v-1122q0 -106 -74.5 -182t-183.5 -76h-1122q-109 0 -183.5 76t-74.5 182zM451 1044q0 -221 157 -221q63 0 104.5 44t41.5 112q0 66 -39 107.5t-97 41.5q-74 0 -110 -61q0 121 55 162q23 16 45 16 q35 0 58 -24q23 -23 22 -47h53q0 45 -39.5 81.5t-93.5 36.5q-68 0 -108 -53q-49 -62 -49 -195zM506 287h934v749h-217v-102h-103v-103h-102v-102h-103v-102h-102v-103h-102v-102h-103v-103h-102v-32zM516 979q0 -45 26.5 -77t65.5 -32q37 0 62.5 30t25.5 77t-25.5 74.5 t-64.5 27.5t-64.5 -27.5t-25.5 -72.5z" />
<glyph unicode="_" d="M88 258v1122q0 106 75 182t183 76h1122q109 0 183.5 -75.5t74.5 -182.5v-1122q0 -106 -74.5 -182t-183.5 -76h-1122q-109 0 -183.5 76t-74.5 182zM391 1102q0 -78 66 -78h10q68 0 68 78v41q0 66 63 65h162q25 0 43 -17t18 -48v-144q-84 -57 -128 -107t-69.5 -127 t-25.5 -192h143q0 80 22.5 138.5t45 83t78 67.5t78.5 66v215q0 90 -56.5 149.5t-148.5 59.5h-162q-94 0 -150.5 -58.5t-56.5 -150.5v-41zM598 287h143v143h-143v-143zM1180 287h143v143h-143v-143zM1180 651q0 -37 20.5 -57.5t50.5 -20.5q29 0 50.5 19.5t21.5 56.5v625 q0 37 -21.5 57.5t-50 20.5t-50 -20.5t-21.5 -57.5v-623z" />
<glyph unicode="`" d="M88 258v1122q0 106 75 182t183 76h1122q109 0 183.5 -75.5t74.5 -182.5v-1122q0 -106 -74.5 -182t-183.5 -76h-1122q-109 0 -183.5 76t-74.5 182zM231 287q0 -59 41 -101.5t103 -42.5h1065q59 0 101 42t42 102v1065q0 59 -42 101t-101 42h-1065q-59 0 -101.5 -42 t-42.5 -101v-1065zM375 287v30h74q-74 49 -74 166q0 109 65 174l635 635q59 59 135 60q78 0 138.5 -57.5t60.5 -139.5q0 -57 -37 -119h68v-24h-189l-667 -670h604v-25h-447v-30h-366zM399 485q0 -61 27 -107t78 -61h20v105h103v102h102v103h102v102h103v102h102v103h103v102 h102l25 25h92q27 47 26 94q0 74 -52 123t-122 49q-66 0 -120 -55l-627 -627q-64 -64 -64 -160z" />
<glyph unicode="a" d="M88 258v1122q0 106 75 182t183 76h1122q109 0 183.5 -75.5t74.5 -182.5v-1122q0 -106 -74.5 -182t-183.5 -76h-1122q-109 0 -183.5 76t-74.5 182zM231 287q0 -59 41 -101.5t103 -42.5h1065q59 0 101 42t42 102v1065q0 59 -42 101t-101 42h-1065q-59 0 -101.5 -42 t-42.5 -101v-1065zM508 395v350l22 398l19 20h717l18 -20l23 -398v-350h-15v-108h-123v108h-524v-108h-125v108h-12zM528 745h349l20 23v354h-348zM598 535q0 -45 45 -46q20 0 33.5 12.5t13.5 33t-13 34t-33.5 13.5t-33 -13.5t-12.5 -33.5zM918 768l20 -23h348l-20 377h-348 v-354zM1124 535q0 -45 45 -46q20 0 34 12.5t14 33t-13.5 34t-34 13.5t-33 -13.5t-12.5 -33.5z" />
<glyph unicode="b" d="M88 258v1122q0 106 75 182t183 76h1122q109 0 183.5 -75.5t74.5 -182.5v-1122q0 -106 -74.5 -182t-183.5 -76h-1122q-109 0 -183.5 76t-74.5 182zM231 287q0 -59 41 -101.5t103 -42.5h1065q59 0 101 42t42 102v1065q0 59 -42 101t-101 42h-1065q-59 0 -101.5 -42 t-42.5 -101v-1065zM508 395v350l22 398l19 20h248l276 178h-6v11h78v-11h-39l-272 -178h147l276 178h-6v11h92v-11h-53l-272 -178h248l18 -20l23 -398v-350h-15v-108h-123v108h-524v-108h-125v108h-12zM528 745h349l20 23v354h-348zM598 535q0 -45 45 -46q20 0 33.5 12.5 t13.5 33t-13 34t-33.5 13.5t-33 -13.5t-12.5 -33.5zM918 768l20 -23h348l-20 377h-348v-354zM1124 535q0 -45 45 -46q20 0 34 12.5t14 33t-13.5 34t-34 13.5t-33 -13.5t-12.5 -33.5z" />
<glyph unicode="c" d="M88 258v1122q0 106 75 182t183 76h1122q109 0 183.5 -75.5t74.5 -182.5v-1122q0 -106 -74.5 -182t-183.5 -76h-1122q-109 0 -183.5 76t-74.5 182zM231 287q0 -59 41 -101.5t103 -42.5h1065q59 0 101 42t42 102v1065q0 59 -42 101t-101 42h-1065q-59 0 -101.5 -42 t-42.5 -101v-1065zM551 453v186q0 106 30.5 225t71.5 191q55 49 142 49v20h20v217h-59v11h307v-11h-64v-217h21v-20q78 0 145 -49q39 -78 71 -196t32 -220v-186q0 -63 -50.5 -114.5t-154.5 -51.5h-74v131h-164v-131h-69q-102 0 -153.5 51.5t-51.5 114.5zM580 684h102v348h-4 q-39 -20 -72 -153q-26 -107 -26 -195zM692 493.5q0 -16.5 11.5 -28.5t28 -12t28.5 12t12 28.5t-12 29t-28.5 12.5t-28 -12.5t-11.5 -29zM692 684h430v348h-430v-348zM825 1124h164v217h-164v-217zM842 309v15h57l72 16v-31l-41 -22h-43zM842 350v27l45 22h43l41 -22v-10 l-72 -17h-57zM1042 493.5q0 -16.5 11.5 -28.5t28 -12t28.5 12t12 28.5t-12 29t-28.5 12.5t-28 -12.5t-11.5 -29zM1133 684h108q0 80 -29 195q-33 133 -73 153h-6v-348z" />
<glyph unicode="d" d="M88 258v1122q0 106 75 182t183 76h1122q109 0 183.5 -75.5t74.5 -182.5v-1122q0 -106 -74.5 -182t-183.5 -76h-1122q-109 0 -183.5 76t-74.5 182zM231 287q0 -59 41 -101.5t103 -42.5h1065q59 0 101 42t42 102v1065q0 59 -42 101t-101 42h-1065q-59 0 -101.5 -42 t-42.5 -101v-1065zM410 420v805q0 47 39.5 87t93.5 40h729q49 0 89 -40t40 -85v-813q0 -51 -40 -89t-89 -38h-279v164h-184v-164h-266q-55 0 -94 39t-39 94zM485 614q0 -20 17.5 -38.5t40.5 -18.5h731q18 0 32.5 17.5t14.5 39.5v609q0 25 -13.5 43t-35.5 18h-729 q-23 0 -40.5 -18.5t-17.5 -42.5v-609zM506 614v609q0 14 11 27.5t26 13.5h729q29 0 28 -41v-609q0 -12 -8 -24t-20 -12h-729q-14 0 -25.5 12t-11.5 24zM543 471q0 -45 45 -45q20 0 33.5 12.5t13.5 33t-13.5 33.5t-34 13t-32.5 -13.5t-12 -33.5zM543 764q0 -16 12 -28.5 t29 -12.5h51q16 0 28.5 12.5t12.5 28.5v418q0 18 -12.5 29.5t-28.5 11.5h-51q-16 0 -28.5 -11.5t-12.5 -29.5v-418zM643 416q0 -33 31 -33q33 0 33 33q0 14 -9.5 24.5t-23.5 10.5q-31 0 -31 -35zM707 686q0 -14 13 -27.5t28 -13.5h319q14 0 27.5 13.5t13.5 27.5v496 q0 14 -13.5 27.5t-27.5 13.5h-319q-14 0 -27.5 -13.5t-13.5 -27.5v-496zM838 326v14h57l72 16v-30l-41 -23h-43zM838 367v26l45 23h43l41 -23v-10l-72 -16h-57zM1108 416q0 -33 31 -33q33 0 32 33q0 14 -9 24.5t-23 10.5q-31 0 -31 -35zM1139 764q0 -16 12 -28.5t29 -12.5 h51q16 0 28.5 12.5t12.5 28.5v418q0 18 -12.5 29.5t-28.5 11.5h-51q-16 0 -28.5 -11.5t-12.5 -29.5v-418zM1180 471q0 -45 45 -45q20 0 33.5 12.5t13.5 33t-13.5 33.5t-34 13t-32.5 -13.5t-12 -33.5z" />
<glyph unicode="e" d="M88 258v1122q0 106 75 182t183 76h1122q109 0 183.5 -75.5t74.5 -182.5v-1122q0 -106 -74.5 -182t-183.5 -76h-1122q-109 0 -183.5 76t-74.5 182zM231 287q0 -59 41 -101.5t103 -42.5h1065q59 0 101 42t42 102v1065q0 59 -42 101t-101 42h-1065q-59 0 -101.5 -42 t-42.5 -101v-1065zM375 473v96h20v189l21 20l61 299q6 23 41 23h782q33 0 41 -23l62 -299l20 -20v-189l21 2v-98h-41v-186h-143v186h-701v-186h-143v186h-41zM442 793h934l-57 284h-819zM504 653.5q0 -22.5 16.5 -39t39 -16.5t38.5 16.5t16 39t-16 39t-38.5 16.5t-39 -16.5 t-16.5 -39zM559 1128l31 146h639l31 -146h-701zM631 1208h41v-41h41v41h-41v41h-41v-41zM713 1208h41v-41h41v41h-41v41h-41v-41zM862 1208.5q0 -16.5 12.5 -29t29 -12.5t28.5 12.5t12 29t-12 28.5t-28.5 12t-29 -12t-12.5 -28.5zM889 1225v4h29v-4h-13v-33h-4v33h-12z M1020 1167h41v41h-41v-41zM1061 1208h41v-41h41v41h-41v41h-41v-41zM1143 1208h41v41h-41v-41zM1204 653.5q0 -22.5 16.5 -39t39 -16.5t39 16.5t16.5 39t-16.5 39t-39 16.5t-39 -16.5t-16.5 -39z" />
<glyph unicode="f" d="M88 258v561h143v-532q0 -27 5 -37l1040 1040q20 20 49 20.5t51.5 -21t22.5 -52.5q0 -29 -25 -53l-1036 -1037q10 -4 37 -4h532v-143h-561q-109 0 -183.5 76t-74.5 182zM88 942v438q0 106 75 182t183 76h1122q109 0 183.5 -75.5t74.5 -182.5v-1122q0 -106 -74.5 -182 t-183.5 -76h-438v143h410q59 0 101 42t42 102v1065q0 57 -48 98t-110 41h-1075q-57 0 -88 -38t-31 -101v-410h-143z" />
<glyph unicode="g" d="M88 258v1122q0 106 75 182t183 76h1122q109 0 183.5 -75.5t74.5 -182.5v-438h-143v410q0 59 -42 101t-101 42h-1065q-59 0 -101.5 -42t-42.5 -101v-1065q0 -59 42 -101.5t102 -42.5h409v-143h-438q-109 0 -183.5 76t-74.5 182zM416 1237q0 31 22.5 52.5t51 21.5t49.5 -21 l1040 -1040q4 10 4 37v532h143v-561q0 -106 -74.5 -182t-183.5 -76h-561v143h533q27 0 37 4l-1037 1037q-24 24 -24 53z" />
<glyph unicode="h" d="M88 258v438h143v-409q0 -59 42 -101.5t102 -42.5h1065q59 0 101 42t42 102v1065q0 59 -42 101t-101 42h-410v143h438q109 0 183.5 -75.5t74.5 -182.5v-1122q0 -106 -74.5 -182t-183.5 -76h-1122q-109 0 -183.5 76t-74.5 182zM88 819v561q0 106 75 182t183 76h561v-143 h-532q-27 0 -37 -4l1036 -1036q25 -25 25 -54q0 -31 -22.5 -52t-51.5 -21t-49 20l-1040 1041q-4 -10 -5 -37v-533h-143z" />
<glyph unicode="i" d="M88 258v1122q0 106 75 182t183 76h438v-143h-409q-59 0 -101.5 -42t-42.5 -101v-1065q0 -59 42 -101.5t102 -42.5h1065q59 0 101 42t42 102v409h143v-438q0 -106 -74.5 -182t-183.5 -76h-1122q-109 0 -183.5 76t-74.5 182zM416 401q0 29 24 54l1037 1036q-10 4 -37 4 h-533v143h561q109 0 183.5 -75.5t74.5 -182.5v-561h-143v533q0 27 -4 37l-1040 -1041q-20 -20 -49 -20t-51.5 21t-22.5 52z" />
<glyph unicode="j" d="M88 258v1122q0 106 75 182t183 76h1122q109 0 183.5 -75.5t74.5 -182.5v-1122q0 -106 -74.5 -182t-183.5 -76h-319l143 143h148q59 0 101 42t42 102v1065q0 59 -42 101t-101 42h-1065q-59 0 -101.5 -42t-42.5 -101v-1065q0 -59 41 -101.5t103 -42.5h147l144 -143h-320 q-109 0 -183.5 76t-74.5 182zM356 473q0 29 22.5 51.5t51.5 22.5t51 -23l326 -325q23 -23 29 -25v1083q0 33 21.5 52.5t50 19.5t50 -19.5t21.5 -52.5v-1083q6 2 29 25l325 325q23 23 51.5 23t51 -23.5t22.5 -52.5q0 -27 -22 -49l-346 -346q-76 -76 -183 -76q-109 0 -182 76 l-346 346q-23 22 -23 51z" />
<glyph unicode="k" d="M88 258v1122q0 106 75 182t183 76h320l-144 -143h-147q-61 0 -102.5 -42t-41.5 -101v-1065q0 -59 42 -101.5t102 -42.5h1065q59 0 101 42t42 102v1065q0 59 -42 101t-101 42h-148l-143 143h319q109 0 183.5 -75.5t74.5 -182.5v-1122q0 -106 -74.5 -182t-183.5 -76h-1122 q-109 0 -183.5 76t-74.5 182zM356 1165.5q0 28.5 23 51.5l346 346q74 76 182 75q106 0 183 -75l346 -346q23 -23 22 -50q0 -29 -22.5 -52t-51 -23t-51.5 22l-325 326q-23 23 -29 24v-1083q0 -33 -21.5 -52.5t-50 -19.5t-50 19.5t-21.5 52.5v1083q-6 -2 -29 -24l-326 -326 q-23 -23 -51.5 -22.5t-51 23t-22.5 51z" />
<glyph unicode="l" d="M88 258v1122q0 106 75 182t183 76h1122q109 0 183.5 -75.5t74.5 -182.5v-319l-143 143v148q0 61 -42 102t-101 41h-1065q-59 0 -101.5 -42t-42.5 -101v-1065q0 -59 42 -101.5t102 -42.5h1065q59 0 101 42t42 102v147l143 144v-320q0 -106 -74.5 -182t-183.5 -76h-1122 q-109 0 -183.5 76t-74.5 182zM397 819.5q0 28.5 19.5 50t52.5 21.5h1083q-2 6 -24 29l-326 325q-23 23 -22.5 51.5t23 51t51 22.5t51.5 -22l346 -347q76 -74 75 -182q0 -106 -75 -182l-346 -346q-23 -23 -50 -23q-29 0 -52 22.5t-23 51.5t22 51l326 326q23 23 24 29h-1083 q-33 0 -52.5 21.5t-19.5 50z" />
<glyph unicode="m" d="M88 258v320l143 -144v-147q0 -59 42 -101.5t102 -42.5h1065q59 0 101 42t42 102v1065q0 59 -42 101t-101 42h-1065q-59 0 -101.5 -41t-42.5 -102v-148l-143 -143v319q0 106 75 182t183 76h1122q109 0 183.5 -75.5t74.5 -182.5v-1122q0 -106 -74.5 -182t-183.5 -76h-1122 q-109 0 -183.5 76t-74.5 182zM88 819q0 109 76 182l346 347q23 23 51.5 22.5t51 -23t22.5 -51t-23 -51.5l-325 -325q-23 -23 -25 -29h1084q33 0 52 -21.5t19 -50t-19.5 -50t-51.5 -21.5h-1084q2 -6 25 -29l325 -326q23 -23 23 -51.5t-23.5 -51t-52.5 -22.5q-27 0 -49 23 l-346 346q-76 76 -76 182z" />
<glyph unicode="n" d="M88 258v1122q0 106 75 182t183 76h1122q109 0 183.5 -75.5t74.5 -182.5v-1122q0 -106 -74.5 -182t-183.5 -76h-1122q-109 0 -183.5 76t-74.5 182zM231 287q0 -59 41 -101.5t103 -42.5h1065q59 0 101 42t42 102v1065q0 59 -42 101t-101 42h-1065q-59 0 -101.5 -42 t-42.5 -101v-1065zM375 692v250h407v410h250v-410h408v-250h-408v-405h-250v405h-407z" />
<glyph unicode="o" d="M88 258v1122q0 106 75 182t183 76h1122q109 0 183.5 -75.5t74.5 -182.5v-1122q0 -106 -74.5 -182t-183.5 -76h-1122q-109 0 -183.5 76t-74.5 182zM231 287q0 -59 41 -101.5t103 -42.5h1065q59 0 101 42t42 102v1065q0 59 -42 101t-101 42h-1065q-59 0 -101.5 -42 t-42.5 -101v-1065zM377 1194q0 51 29.5 94t80.5 64v-121l72 -39l70 37v123q49 -18 78.5 -61.5t29.5 -94.5q0 -117 -125 -170v-602q16 -23 17 -53q0 -35 -21.5 -59.5t-50.5 -24.5t-49.5 24.5t-20.5 59.5t19 57v598q-129 53 -129 168zM530 367q0 -37 29 -37t29 37q0 39 -29 39 t-29 -39zM870 1192v154l7 6h333q98 -68 230 -121v-45h-230v-899h-159v899h-174z" />
<glyph unicode="p" d="M88 258v1122q0 106 75 182t183 76h1122q109 0 183.5 -75.5t74.5 -182.5v-1122q0 -106 -74.5 -182t-183.5 -76h-1122q-109 0 -183.5 76t-74.5 182zM231 287q0 -59 41 -101.5t103 -42.5h1065q59 0 101 42t42 102v1065q0 59 -42 101t-101 42h-1065q-59 0 -101.5 -42 t-42.5 -101v-1065zM375 354v15h1065v-15q-49 0 -87 -8t-75 -20.5t-64 -16.5v-22h-604v22q-27 4 -66.5 16.5t-79.5 20.5t-89 8zM610 510v373h604v-76q20 12 70 12q78 0 78 -98q0 -59 -29.5 -112.5t-66.5 -53.5q-23 0 -52 14v-59q0 -41 -30.5 -72.5t-71.5 -31.5v-23h-399v23 q-43 0 -73 30.5t-30 73.5zM690 1042q0 35 17.5 111t17.5 117q0 47 -12 82l20 -21q14 -41 15 -80q0 -35 -15.5 -108.5t-15.5 -114.5q0 -53 16 -100l-20 20q-23 45 -23 94zM895 1022q0 35 17.5 110.5t17.5 116.5q0 47 -12 82l20 -20q14 -41 14 -80q0 -35 -15 -108.5 t-15 -114.5q0 -53 16 -101l-20 21q-23 45 -23 94zM1085 1042q0 35 17.5 111t17.5 117q0 47 -12 82l20 -21q14 -41 15 -80q0 -35 -15.5 -108.5t-15.5 -114.5q0 -53 16 -100l-20 20q-23 45 -23 94zM1214 604q14 -18 52 -18q20 0 42.5 41t22.5 92q0 70 -47 69q-57 0 -70 -18 v-166z" />
<glyph unicode="q" d="M88 258v1122q0 106 75 182t183 76h1122q109 0 183.5 -75.5t74.5 -182.5v-1122q0 -106 -74.5 -182t-183.5 -76h-1122q-109 0 -183.5 76t-74.5 182zM231 287q0 -59 41 -101.5t103 -42.5h1065q59 0 101 42t42 102v1065q0 59 -42 101t-101 42h-1065q-59 0 -101.5 -42 t-42.5 -101v-1065zM375 442q0 92 80 136v475q-80 43 -80 135q0 66 48 115t113.5 49t111.5 -48.5t46 -115.5q0 -84 -73 -133v-480q74 -49 73 -133q0 -66 -47 -110.5t-112.5 -44.5t-112.5 44.5t-47 110.5zM598 360l14 9q35 35 35 86q0 12 -6 28l-10 -2q4 -8 4 -24 q0 -52 -37 -97zM598 1282q43 -18 43 -80q0 -20 -2 -33l4 2q10 16 10 39q0 68 -53 76zM723 317v23q92 -33 184 -33q158 0 287 85t188 222h-331v50h350q25 70 24 153q0 213 -151.5 363.5t-366.5 150.5q-90 0 -184 -35v23q92 33 184 33q221 0 380 -157t159 -378q0 -84 -25 -153 h25v-50h-41q-61 -147 -196.5 -237t-301.5 -90q-100 -1 -184 30zM743 451q0 35 25 58t59.5 23t60 -24.5t25.5 -57t-25.5 -56t-60 -23.5t-59.5 23.5t-25 56.5zM743 1180q0 35 25 58.5t59.5 23.5t60 -25t25.5 -57.5t-25.5 -56t-60 -23.5t-59.5 23.5t-25 56.5zM754 450.5 q0 -28.5 21.5 -49t52 -20.5t53 20.5t22.5 49t-22.5 50t-53 21.5t-52 -21.5t-21.5 -50zM754 1179.5q0 -28.5 21.5 -49t52 -20.5t53 20.5t22.5 49t-22.5 50t-53 21.5t-52 -21.5t-21.5 -50zM997 498q0 35 25 58.5t59.5 23.5t60 -25t25.5 -57.5t-25.5 -56t-60 -23.5t-59.5 23.5 t-25 56.5zM997 1137q0 35 25 58.5t59.5 23.5t60 -25t25.5 -57.5t-25.5 -56t-60 -23.5t-59.5 23.5t-25 56.5zM1008 497.5q0 -28.5 21.5 -49t52 -20.5t53 20.5t22.5 49t-22.5 50t-53 21.5t-52 -21.5t-21.5 -50zM1008 1136.5q0 -28.5 21.5 -49t52 -20.5t53 20.5t22.5 49 t-22.5 50t-53 21.5t-52 -21.5t-21.5 -50zM1155 930q0 35 24.5 58.5t59.5 23.5t60.5 -24.5t25.5 -57.5t-25.5 -56.5t-60.5 -23.5t-59.5 23.5t-24.5 56.5zM1165 929.5q0 -28.5 21.5 -49t52.5 -20.5t53.5 20.5t22.5 49t-22.5 50t-53.5 21.5t-52.5 -21.5t-21.5 -50z" />
<glyph unicode="r" d="M88 258v1122q0 106 75 182t183 76h1122q109 0 183.5 -75.5t74.5 -182.5v-1122q0 -106 -74.5 -182t-183.5 -76h-1122q-109 0 -183.5 76t-74.5 182zM231 287q0 -59 41 -101.5t103 -42.5h1065q59 0 101 42t42 102v1065q0 59 -42 101t-101 42h-1065q-59 0 -101.5 -42 t-42.5 -101v-1065zM375 805l338 264h88l14 43h82v6q0 74 31 74q55 0 55 57q0 68 -72 68q-37 0 -50 -16.5t-13 -51.5q0 -16 -17 -16q-14 0 -14 16q0 98 94 99q51 0 77 -29t26 -70q0 -35 -18.5 -60.5t-53.5 -25.5q-14 0 -14 -45v-6h76l12 -43h94l330 -264l-101 -131l-229 186 l31 -573q-27 -4 -78 -4q-47 0 -134 9t-130 9q-61 0 -119 -14l33 565l-226 -180z" />
<glyph unicode="s" d="M88 258v1122q0 106 75 182t183 76h1122q109 0 183.5 -75.5t74.5 -182.5v-1122q0 -106 -74.5 -182t-183.5 -76h-1122q-109 0 -183.5 76t-74.5 182zM231 287q0 -59 41 -101.5t103 -42.5h1065q59 0 101 42t42 102v1065q0 59 -42 101t-101 42h-1065q-59 0 -101.5 -42 t-42.5 -101v-1065zM375 819h661v15h-661v6l74 45h518v28h120v64q0 18 16.5 33.5t39.5 15.5h246q23 0 40 -14.5t17 -34.5v-324q0 -20 -17.5 -35.5t-39.5 -15.5h-246q-23 0 -39.5 15.5t-16.5 35.5v86h-120v29l-19 -12h-18l-10 12l-17 -10l-12 10l-19 -20h-10l-16 20l-33 -14 l-25 14h-20l-45 -20l-35 20l-51 -14l-12 14h-17l-22 -20h-25l-29 20h-18l-45 -20l-20 20h-25zM1309 819h63v103h-63v-103z" />
<glyph unicode="t" d="M88 258v1122q0 106 75 182t183 76h1122q109 0 183.5 -75.5t74.5 -182.5v-1122q0 -106 -74.5 -182t-183.5 -76h-1122q-109 0 -183.5 76t-74.5 182zM231 287q0 -59 41 -101.5t103 -42.5h1065q59 0 101 42t42 102v1065q0 59 -42 101t-101 42h-1065q-59 0 -101.5 -42 t-42.5 -101v-1065zM596 776q0 94 53 170t139 109v41h58v116h-29q-45 16 -90 17q-43 0 -96 -17h-35v101h35q49 -23 94 -23q41 0 90 23h31v12h106v-12h27q51 -23 96 -23q43 0 88 23h41v-101h-43q-49 16 -88 17q-45 0 -94 -17h-27v-116h58v-41q86 -33 140 -109t54 -170 q0 -125 -89 -212t-216 -87t-215 87t-88 212zM657 776q0 -98 71 -167.5t171 -69.5t172 69.5t72 167.5t-72 169t-172 71t-171 -71t-71 -169zM846 338q0 25 20.5 78t32.5 53t32.5 -55.5t20.5 -77.5q0 -20 -16 -34.5t-36.5 -14.5t-37 15.5t-16.5 35.5zM899 297q45 2 47 39h-2 q-2 -10 -7 -15.5t-17.5 -10.5t-16.5 -7z" />
<glyph unicode="u" d="M88 258v1122q0 106 75 182t183 76h1122q109 0 183.5 -75.5t74.5 -182.5v-1122q0 -106 -74.5 -182t-183.5 -76h-1122q-109 0 -183.5 76t-74.5 182zM231 287q0 -59 41 -101.5t103 -42.5h1065q59 0 101 42t42 102v1065q0 59 -42 101t-101 42h-1065q-59 0 -101.5 -42 t-42.5 -101v-1065zM375 356.5q0 32.5 18.5 51t42.5 18.5h426q25 0 43.5 -18.5t18.5 -51t-18.5 -51t-43.5 -18.5h-426q-25 0 -43 18.5t-18 51zM406 514q0 31 18 51.5t43 20.5h364q25 0 43.5 -20.5t18.5 -51.5t-18.5 -49.5t-43.5 -18.5h-364q-25 0 -43 19.5t-18 48.5zM436 676 q0 29 18.5 49t43.5 20h303q25 0 43 -20t18 -51q0 -29 -18.5 -48.5t-42.5 -19.5h-303q-25 0 -43.5 20.5t-18.5 49.5zM467 836q0 27 19.5 48t41.5 21h242q25 0 43 -20.5t18 -48.5q0 -31 -18 -50.5t-43 -19.5h-242q-25 0 -43 19.5t-18 50.5zM498 995q0 27 19.5 48.5t41.5 21.5 h180q23 0 42.5 -21.5t19.5 -48.5q0 -31 -18.5 -50t-43.5 -19h-180q-25 0 -43 19t-18 50zM514 1220.5q0 55.5 40 95.5t95.5 40t95 -40t39.5 -95.5t-39.5 -95.5t-95 -40t-95.5 40t-40 95.5zM913 543q0 109 80 184q6 -86 44 -127t88 -47l102 -12q51 -6 93 -44t54 -122 q-78 -88 -198 -88q-109 0 -186 75t-77 181zM1004 735q74 63 172 64q109 0 185.5 -75t76.5 -181q0 -88 -56 -160q-12 86 -54 125t-93 45l-101 12q-50 6 -87 45t-43 125z" />
<glyph unicode="v" d="M88 258v1122q0 106 75 182t183 76h1122q109 0 183.5 -75.5t74.5 -182.5v-1122q0 -106 -74.5 -182t-183.5 -76h-1122q-109 0 -183.5 76t-74.5 182zM231 287q0 -59 41 -101.5t103 -42.5h1065q59 0 101 42t42 102v1065q0 59 -42 101t-101 42h-1065q-59 0 -101.5 -42 t-42.5 -101v-1065zM508 287v32h176v564h-72q-16 0 -29.5 15t-13.5 32v381q0 16 13.5 30.5t29.5 14.5h455q18 0 34.5 -14.5t16.5 -34.5v-80h68l-43 51l18 18l62 -69h18v-17l-4 -2l27 -28l-23 -125q-2 -16 -2 -51q0 -68 24.5 -222.5t24.5 -226.5q0 -158 -96 -158q-49 0 -77 43 t-28 123q0 61 15.5 134t15.5 108q0 55 -14 92l-35 -14h-65v-564h260v-32h-756zM643 961h404v319h-404v-319zM1118 559q0 -129 74 -129q63 0 63 127q0 68 -26.5 231.5t-26.5 233.5q0 31 6 49l6 39q-25 23 -24 64v18l-72 -25v-225q33 -55 33 -127q0 -43 -16.5 -129t-16.5 -127 zM1204 1169q0 -23 15 -39l6 41l-17 27q-4 -25 -4 -29z" />
<glyph unicode="w" d="M88 258v1122q0 106 75 182t183 76h1122q109 0 183.5 -75.5t74.5 -182.5v-1122q0 -106 -74.5 -182t-183.5 -76h-1122q-109 0 -183.5 76t-74.5 182zM231 287q0 -59 41 -101.5t103 -42.5h1065q59 0 101 42t42 102v1065q0 59 -42 101t-101 42h-1065q-59 0 -101.5 -42 t-42.5 -101v-1065zM375 354v15h1065v-15q-49 0 -87 -8t-75 -20.5t-64 -16.5v-22h-604v22q-27 4 -66.5 16.5t-79.5 20.5t-89 8zM375 471q0 57 55 215q41 113 92 203q18 -18 47 -19v-6q-20 -92 -63 -209q-80 -209 -121 -209q-10 0 -10 25zM526 897q66 172 74 197q2 4 2 10 q0 12 -14.5 34.5t-14.5 32.5l2 7q33 100 119 194l6 -4q-72 -94 -102 -182l10 -4q31 88 107 180l8 -4q-76 -109 -96 -182l10 -5q33 90 100 181l11 -4q-72 -111 -93 -183l13 -4q55 127 92 178l10 -4q-66 -111 -82 -182l14 -4q25 92 78 180l8 -4q-39 -84 -71 -188 q-8 -27 -46 -37t-40 -17q-14 -33 -31.5 -103.5t-26.5 -94.5l-2 -8q-25 0 -45 20zM674 389l153 635q8 12 21 12q6 0 15 -2t14 -2q8 0 14 8q10 16 35 17q10 0 16 -6l193 -662h-66q-33 0 -85 9.5t-73 9.5q-12 0 -32 -5q-70 -14 -205 -14zM694 410q37 -4 56 -4q63 0 124 20 q63 94 64 248q0 180 -78 336q-4 10 -14 10q-6 0 -12 -10zM868 1010q74 -174 74 -330q0 -131 -53 -256q8 2 22 2q31 0 81 -8t77 -8h41l-176 634q-17 -34 -66 -34zM1059 1317q0 55 37 55q16 -8 31.5 -31.5t34 -71.5t33.5 -92l43 -131.5t50 -148.5q-23 -23 -43 -23l-4 11 q-182 309 -182 432zM1247 866q23 0 45 23q51 -90 92 -203q55 -158 56 -215q0 -25 -10 -25q-39 0 -117 203q-39 104 -64 213z" />
<glyph unicode="x" d="M88 258v1122q0 106 75 182t183 76h1122q109 0 183.5 -75.5t74.5 -182.5v-1122q0 -106 -74.5 -182t-183.5 -76h-1122q-109 0 -183.5 76t-74.5 182zM231 287q0 -59 41 -101.5t103 -42.5h1065q59 0 101 42t42 102v1065q0 59 -42 101t-101 42h-1065q-59 0 -101.5 -42 t-42.5 -101v-1065zM375 1171q37 0 58.5 -3t44 -15t34.5 -41t20 -76l41 -256h410q25 0 39 -19.5t14 -45.5q0 -55 -39 -62l-30 -207h-39l30 -159h-45l-65 159h-260l-84 -159h-39l39 159h-35zM1006 1004l43 352h299l38 -352q-96 -10 -172 -11v-676l123 -14v-16h-282v16l121 14 v676q-78 1 -170 11z" />
<glyph unicode="y" d="M88 258v1122q0 106 75 182t183 76h1122q109 0 183.5 -75.5t74.5 -182.5v-1122q0 -106 -74.5 -182t-183.5 -76h-1122q-109 0 -183.5 76t-74.5 182zM231 287q0 -59 41 -101.5t103 -42.5h1065q59 0 101 42t42 102v1065q0 59 -42 101t-101 42h-1065q-59 0 -101.5 -42 t-42.5 -101v-1065zM375 918v434h438l-111 -109l627 -627l111 103v-432h-420l106 108l-634 635zM410 1192q0 -53 37.5 -92t91 -39t91.5 39t38 92t-38 92t-91.5 39t-91 -39t-37.5 -92zM463 1174l2 14h12v14h-14l2 15h12q10 35 35 49q20 10 38.5 10t35.5 -10l-4 -19 q-16 10 -31 10q-16 0 -31 -10q-4 -2 -12 -14q-6 -8 -8 -16h75l-4 -15h-71v-14h69l-4 -14h-63q2 -27 20 -37q12 -6 27 -7q18 0 33 11v-23q-16 -6 -31 -6q-49 0 -66 41q-4 12 -6 21h-16zM772 840h23v65h39q57 0 57 47q0 37 -37 45q-6 2 -25 2h-57v-159zM795 924h36q37 0 37 28 q0 23 -18 27q-2 2 -19 2h-36v-57zM877 879l43 -117q-6 -16 -9 -19q-2 -8 -14 -8h-10l2 -16q4 -2 12 -2q16 0 27 16l12 25l41 121h-20l-25 -70q-2 -4 -5 -11t-3 -10l-31 91h-20zM965 707q0 -47 12 -65.5t43 -18.5q55 0 55 61q0 27 -15.5 43t-40 16t-40.5 -24q0 27 9 37t42 10 q20 0 26.5 1t10.5 5t6 14l-45 -2q-33 0 -48 -17t-15 -60zM985 680q0 -39 35 -39t35 43q0 41 -35 41t-35 -45zM1161 452.5q0 -53.5 38 -92t91 -38.5t91 38.5t38 92t-38 92.5t-91 39t-91 -39t-38 -92.5zM1245 420l21 2q2 -14 6 -21q8 -8 20 -8v56q-8 2 -24 10q-18 10 -19 33 q0 20 15 32q6 8 28 11v8h13v-8q18 -4 24 -11q12 -10 17 -28l-21 -2q-4 16 -20 20v-47q14 -4 18 -6q27 -14 27 -41q0 -18 -13.5 -31.5t-31.5 -13.5v-23h-13v21q-47 0 -47 47zM1270 494q0 -16 22 -25v47q-22 -2 -22 -22zM1305 393q25 0 24 27q0 14 -24 24v-51z" />
<glyph unicode="z" d="M88 258v1122q0 106 75 182t183 76h1122q109 0 183.5 -75.5t74.5 -182.5v-1122q0 -106 -74.5 -182t-183.5 -76h-1122q-109 0 -183.5 76t-74.5 182zM231 287q0 -59 41 -101.5t103 -42.5h1065q59 0 101 42t42 102v1065q0 59 -42 101t-101 42h-1065q-59 0 -101.5 -42 t-42.5 -101v-1065zM375 287v57h968v578h-198v200h295v-835h-1065zM416 383v285l10 8h41v4h2v25q0 8 10 8t10 -8v-25h3v-4h34l11 -8v-285l-11 -8h-100zM567 383v373l11 8h24v2h4v25q0 14 10 14q12 0 13 -14v-25h4v-2h26l11 -8v-373l-11 -8h-81zM692 387v258l10 8h132v4h10 q0 27 13 37.5t50 10.5t51.5 -10.5t14.5 -37.5h8v-4h160l10 -8v-258l-10 -10h-439zM858 657h100q0 18 -9 25.5t-42 7.5q-31 0 -40 -7.5t-9 -25.5zM1159 991h107l20 80l19 -80h122v117h-268v-117zM1171 1075v23h248v-23h-6v6h-235v-6h-7z" />
<glyph unicode="{" d="M88 258v1122q0 106 75 182t183 76h1122q109 0 183.5 -75.5t74.5 -182.5v-1122q0 -106 -74.5 -182t-183.5 -76h-1122q-109 0 -183.5 76t-74.5 182zM375 1298q0 -27 51 -77l252 -252v-639l57 2l109 471l332 -332v-139h22l84 112h131l6 29l-76 19l97 73l-37 43l-162 -49 l-315 315l403 121v64l-565 -23l-242 242q-20 20 -63 20q-37 18 -58 19q-26 -1 -26 -19z" />
<glyph unicode="|" d="M88 258v1122q0 106 75 182t183 76h1122q109 0 183.5 -75.5t74.5 -182.5v-1122q0 -106 -74.5 -182t-183.5 -76h-1122q-109 0 -183.5 76t-74.5 182zM375 1141q0 -14 20 -15h13l65 -88l203 -383h627l110 353l-919 30l-78 103q0 16 -20.5 16t-20.5 -16zM508 1018l178 -338 h600l100 305zM553 371q0 -35 25.5 -59.5t62.5 -24.5t62.5 24.5t25.5 59.5t-25.5 60.5t-62.5 25.5t-62.5 -25.5t-25.5 -60.5zM578 370.5q0 -26.5 18 -45t45 -18.5t45.5 18.5t18.5 45t-18.5 45t-45.5 18.5t-45 -18.5t-18 -45zM762 397q121 104 227 105q111 0 213 -105v29 q-102 104 -213 104q-129 0 -227 -104v-29zM1237 371q0 -35 25.5 -59.5t62.5 -24.5t62.5 24.5t25.5 59.5t-25.5 60.5t-62.5 25.5t-62.5 -25.5t-25.5 -60.5zM1262 370.5q0 -26.5 18 -45t45 -18.5t45.5 18.5t18.5 45t-18.5 45t-45.5 18.5t-45 -18.5t-18 -45z" />
<glyph unicode="}" d="M88 258v1122q0 106 75 182t183 76h1122q109 0 183.5 -75.5t74.5 -182.5v-1122q0 -106 -74.5 -182t-183.5 -76h-1122q-109 0 -183.5 76t-74.5 182zM375 965l174 -480h891v35h-871l-159 445h-35zM553 371q0 -35 25.5 -59.5t62.5 -24.5t62.5 24.5t25.5 59.5t-25.5 60.5 t-62.5 25.5t-62.5 -25.5t-25.5 -60.5zM578 370.5q0 -26.5 18 -45t45 -18.5t45.5 18.5t18.5 45t-18.5 45t-45.5 18.5t-45 -18.5t-18 -45zM592 553l10 -8h100l11 8v285l-11 8h-34v4h-2v24q0 8 -10.5 8.5t-10.5 -8.5v-24h-2v-4h-41l-10 -8v-285zM743 553l11 -8h82l10 8v373 l-10 8h-27v2h-4v25q0 14 -12 14q-10 0 -11 -14v-25h-4v-2h-24l-11 -8v-373zM887 555l10 -10h438l11 10v258l-11 8h-159v4h-9q0 27 -14 37t-51 10t-50.5 -10t-13.5 -37h-10v-4h-131l-10 -8v-258zM1053 825h100q0 18 -9 25.5t-42 7.5q-31 0 -40 -7.5t-9 -25.5zM1237 371 q0 -35 25.5 -59.5t62.5 -24.5t62.5 24.5t25.5 59.5t-25.5 60.5t-62.5 25.5t-62.5 -25.5t-25.5 -60.5zM1262 370.5q0 -26.5 18 -45t45 -18.5t45.5 18.5t18.5 45t-18.5 45t-45.5 18.5t-45 -18.5t-18 -45z" />
<glyph unicode="~" d="M88 258v1122q0 106 75 182t183 76h1122q109 0 183.5 -75.5t74.5 -182.5v-1122q0 -106 -74.5 -182t-183.5 -76h-1122q-109 0 -183.5 76t-74.5 182zM375 287h366v30h447v25h-604l667 670h189v24h-68q37 61 37 119q0 82 -60.5 139.5t-138.5 57.5q-76 0 -135 -60l-635 -635 q-66 -66 -65 -174q0 -117 74 -166h-74v-30zM399 485q0 -61 27 -107t78 -61h20v105h103v102h102v103h102v102h103v102h102v103h103v102h102l25 25h92q27 47 26 94q0 74 -52 123t-122 49q-66 0 -120 -55l-627 -627q-64 -64 -64 -160z" />
<glyph unicode="&#xa0;" />
<glyph unicode="&#xad;" d="M88 258v1122q0 106 75 182t183 76h1122q109 0 183.5 -75.5t74.5 -182.5v-1122q0 -106 -74.5 -182t-183.5 -76h-1122q-109 0 -183.5 76t-74.5 182zM231 287q0 -59 41 -101.5t103 -42.5h1065q59 0 101 42t42 102v1065q0 59 -42 101t-101 42h-1065q-59 0 -101.5 -42 t-42.5 -101v-1065zM391 1102v41q0 92 56.5 150.5t150.5 58.5h162q92 0 148.5 -59.5t56.5 -149.5v-215q-23 -23 -78.5 -66t-78 -67.5t-45 -83t-22.5 -138.5h-143q0 115 25.5 192t69.5 127t128 107v144q0 31 -18.5 48t-42.5 17h-162q-63 0 -63 -65v-41q0 -78 -68 -78h-10 q-66 0 -66 78zM598 287v143h143v-143h-143zM1180 287v143h143v-143h-143zM1180 651v623q0 37 21.5 57.5t50 20.5t50 -20.5t21.5 -57.5v-625q0 -37 -21.5 -56.5t-50.5 -19.5q-31 0 -51 20.5t-20 57.5z" />
<glyph unicode="&#x2000;" horiz-adv-x="819" />
<glyph unicode="&#x2001;" horiz-adv-x="1640" />
<glyph unicode="&#x2002;" horiz-adv-x="819" />
<glyph unicode="&#x2003;" horiz-adv-x="1640" />
<glyph unicode="&#x2004;" horiz-adv-x="546" />
<glyph unicode="&#x2005;" horiz-adv-x="409" />
<glyph unicode="&#x2006;" horiz-adv-x="272" />
<glyph unicode="&#x2007;" horiz-adv-x="272" />
<glyph unicode="&#x2008;" horiz-adv-x="204" />
<glyph unicode="&#x2009;" horiz-adv-x="327" />
<glyph unicode="&#x200a;" horiz-adv-x="90" />
<glyph unicode="&#x2010;" d="M88 258v1122q0 106 75 182t183 76h1122q109 0 183.5 -75.5t74.5 -182.5v-1122q0 -106 -74.5 -182t-183.5 -76h-1122q-109 0 -183.5 76t-74.5 182zM231 287q0 -59 41 -101.5t103 -42.5h1065q59 0 101 42t42 102v1065q0 59 -42 101t-101 42h-1065q-59 0 -101.5 -42 t-42.5 -101v-1065zM391 1102v41q0 92 56.5 150.5t150.5 58.5h162q92 0 148.5 -59.5t56.5 -149.5v-215q-23 -23 -78.5 -66t-78 -67.5t-45 -83t-22.5 -138.5h-143q0 115 25.5 192t69.5 127t128 107v144q0 31 -18.5 48t-42.5 17h-162q-63 0 -63 -65v-41q0 -78 -68 -78h-10 q-66 0 -66 78zM598 287v143h143v-143h-143zM1180 287v143h143v-143h-143zM1180 651v623q0 37 21.5 57.5t50 20.5t50 -20.5t21.5 -57.5v-625q0 -37 -21.5 -56.5t-50.5 -19.5q-31 0 -51 20.5t-20 57.5z" />
<glyph unicode="&#x2011;" d="M88 258v1122q0 106 75 182t183 76h1122q109 0 183.5 -75.5t74.5 -182.5v-1122q0 -106 -74.5 -182t-183.5 -76h-1122q-109 0 -183.5 76t-74.5 182zM231 287q0 -59 41 -101.5t103 -42.5h1065q59 0 101 42t42 102v1065q0 59 -42 101t-101 42h-1065q-59 0 -101.5 -42 t-42.5 -101v-1065zM391 1102v41q0 92 56.5 150.5t150.5 58.5h162q92 0 148.5 -59.5t56.5 -149.5v-215q-23 -23 -78.5 -66t-78 -67.5t-45 -83t-22.5 -138.5h-143q0 115 25.5 192t69.5 127t128 107v144q0 31 -18.5 48t-42.5 17h-162q-63 0 -63 -65v-41q0 -78 -68 -78h-10 q-66 0 -66 78zM598 287v143h143v-143h-143zM1180 287v143h143v-143h-143zM1180 651v623q0 37 21.5 57.5t50 20.5t50 -20.5t21.5 -57.5v-625q0 -37 -21.5 -56.5t-50.5 -19.5q-31 0 -51 20.5t-20 57.5z" />
<glyph unicode="&#x2012;" d="M88 258v1122q0 106 75 182t183 76h1122q109 0 183.5 -75.5t74.5 -182.5v-1122q0 -106 -74.5 -182t-183.5 -76h-1122q-109 0 -183.5 76t-74.5 182zM231 287q0 -59 41 -101.5t103 -42.5h1065q59 0 101 42t42 102v1065q0 59 -42 101t-101 42h-1065q-59 0 -101.5 -42 t-42.5 -101v-1065zM391 1102v41q0 92 56.5 150.5t150.5 58.5h162q92 0 148.5 -59.5t56.5 -149.5v-215q-23 -23 -78.5 -66t-78 -67.5t-45 -83t-22.5 -138.5h-143q0 115 25.5 192t69.5 127t128 107v144q0 31 -18.5 48t-42.5 17h-162q-63 0 -63 -65v-41q0 -78 -68 -78h-10 q-66 0 -66 78zM598 287v143h143v-143h-143zM1180 287v143h143v-143h-143zM1180 651v623q0 37 21.5 57.5t50 20.5t50 -20.5t21.5 -57.5v-625q0 -37 -21.5 -56.5t-50.5 -19.5q-31 0 -51 20.5t-20 57.5z" />
<glyph unicode="&#x2013;" horiz-adv-x="1024" d="M88 0v1638h840v-1638h-840z" />
<glyph unicode="&#x2014;" horiz-adv-x="2048" d="M88 0v1638h1864v-1638h-1864z" />
<glyph unicode="&#x2018;" d="M88 258v1122q0 106 75 182t183 76h1122q109 0 183.5 -75.5t74.5 -182.5v-1122q0 -106 -74.5 -182t-183.5 -76h-1122q-109 0 -183.5 76t-74.5 182zM231 287q0 -59 41 -101.5t103 -42.5h1065q59 0 101 42t42 102v1065q0 59 -42 101t-101 42h-1065q-59 0 -101.5 -42 t-42.5 -101v-1065zM375 287v30h74q-74 49 -74 166q0 109 65 174l635 635q59 59 135 60q78 0 138.5 -57.5t60.5 -139.5q0 -57 -37 -119h68v-24h-189l-667 -670h604v-25h-447v-30h-366zM399 485q0 -61 27 -107t78 -61h20v105h103v102h102v103h102v102h103v102h102v103h103v102 h102l25 25h92q27 47 26 94q0 74 -52 123t-122 49q-66 0 -120 -55l-627 -627q-64 -64 -64 -160z" />
<glyph unicode="&#x2019;" d="M88 258v1122q0 106 75 182t183 76h1122q109 0 183.5 -75.5t74.5 -182.5v-1122q0 -106 -74.5 -182t-183.5 -76h-1122q-109 0 -183.5 76t-74.5 182zM231 287q0 -59 41 -101.5t103 -42.5h1065q59 0 101 42t42 102v1065q0 59 -42 101t-101 42h-1065q-59 0 -101.5 -42 t-42.5 -101v-1065zM375 332v41h31v43h22v45h80v573h-102v25h-31v33l530 194l535 -194v-33h-33v-25h-100v-573h75v-45h25v-43h33v-41h-1065zM608 461h131v573h-131v-573zM846 461h127v573h-127v-573zM1085 461h121v573h-121v-573z" />
<glyph unicode="&#x201c;" d="M88 258v1122q0 106 75 182t183 76h1122q109 0 183.5 -75.5t74.5 -182.5v-1122q0 -106 -74.5 -182t-183.5 -76h-1122q-109 0 -183.5 76t-74.5 182zM375 332h1065v41h-33v43h-25v45h-75v573h100v25h33v33l-535 194l-530 -194v-33h31v-25h102v-573h-80v-45h-22v-43h-31v-41z M608 461h131v573h-131v-573zM846 461h127v573h-127v-573zM1085 461h121v573h-121v-573z" />
<glyph unicode="&#x201d;" d="M88 258v1122q0 106 75 182t183 76h1122q109 0 183.5 -75.5t74.5 -182.5v-1122q0 -106 -74.5 -182t-183.5 -76h-1122q-109 0 -183.5 76t-74.5 182zM375 332h1065v41h-33v43h-25v45h-75v573h100v25h33v33l-535 194l-530 -194v-33h31v-25h102v-573h-80v-45h-22v-43h-31v-41z M608 461h131v573h-131v-573zM846 461h127v573h-127v-573zM1085 461h121v573h-121v-573z" />
<glyph unicode="&#x2026;" horiz-adv-x="5468" d="M3733 258v1122q0 106 75 182t183 76h1122q109 0 183.5 -75.5t74.5 -182.5v-1122q0 -106 -74.5 -182t-183.5 -76h-1122q-109 0 -183.5 76t-74.5 182zM3876 287q0 -59 41 -101.5t103 -42.5h1065q59 0 101 42t42 102v1065q0 59 -42 101t-101 42h-1065q-59 0 -101.5 -42 t-42.5 -101v-1065zM4034 291v336q0 27 19.5 46t46.5 19h344q29 0 48 -18.5t19 -46.5v-336h-118v164h55l-178 172l-170 -172h53v-164h-119zM4034 717v33h477v-33h-477zM4034 774v578h1051v-1061h-10v401h-535v-401h-10v483h-496zM4368 858q0 -51 49 -51h565q49 0 49 49v379 q0 51 -49 51h-565q-49 0 -49 -53v-375zM4567 291v69h118v-69h-118zM4567 391v121h118v-121h-118zM4567 539v120h118v-120h-118zM4749 291v69h119v-69h-119zM4749 391v121h119v-121h-119zM4749 539v120h119v-120h-119zM4927 291v69h119v-69h-119zM4927 391v121h119v-121h-119 zM4927 539v120h119v-120h-119zM1911 258v1122q0 106 75 182t183 76h1122q109 0 183.5 -75.5t74.5 -182.5v-1122q0 -106 -74.5 -182t-183.5 -76h-1122q-109 0 -183.5 76t-74.5 182zM2054 287q0 -59 41 -101.5t103 -42.5h1065q59 0 101 42t42 102v1065q0 59 -42 101t-101 42 h-1065q-59 0 -101.5 -42t-42.5 -101v-1065zM2212 291v336q0 27 19.5 46t46.5 19h344q29 0 48 -18.5t19 -46.5v-336h-118v164h55l-178 172l-170 -172h53v-164h-119zM2212 717v33h477v-33h-477zM2212 774v578h1051v-1061h-10v401h-535v-401h-10v483h-496zM2546 858 q0 -51 49 -51h565q49 0 49 49v379q0 51 -49 51h-565q-49 0 -49 -53v-375zM2745 291v69h118v-69h-118zM2745 391v121h118v-121h-118zM2745 539v120h118v-120h-118zM2927 291v69h119v-69h-119zM2927 391v121h119v-121h-119zM2927 539v120h119v-120h-119zM3105 291v69h119v-69 h-119zM3105 391v121h119v-121h-119zM3105 539v120h119v-120h-119zM88 258v1122q0 106 75 182t183 76h1122q109 0 183.5 -75.5t74.5 -182.5v-1122q0 -106 -74.5 -182t-183.5 -76h-1122q-109 0 -183.5 76t-74.5 182zM231 287q0 -59 41 -101.5t103 -42.5h1065q59 0 101 42 t42 102v1065q0 59 -42 101t-101 42h-1065q-59 0 -101.5 -42t-42.5 -101v-1065zM389 291v336q0 27 19.5 46t46.5 19h344q29 0 48 -18.5t19 -46.5v-336h-118v164h55l-178 172l-170 -172h53v-164h-119zM389 717v33h477v-33h-477zM389 774v578h1051v-1061h-10v401h-535v-401h-10 v483h-496zM723 858q0 -51 49 -51h565q49 0 49 49v379q0 51 -49 51h-565q-49 0 -49 -53v-375zM922 291v69h118v-69h-118zM922 391v121h118v-121h-118zM922 539v120h118v-120h-118zM1104 291v69h119v-69h-119zM1104 391v121h119v-121h-119zM1104 539v120h119v-120h-119z M1282 291v69h119v-69h-119zM1282 391v121h119v-121h-119zM1282 539v120h119v-120h-119z" />
<glyph unicode="&#x202f;" horiz-adv-x="327" />
<glyph unicode="&#x205f;" horiz-adv-x="409" />
<glyph unicode="&#x2122;" horiz-adv-x="3645" d="M1911 258v1122q0 106 75 182t183 76h1122q109 0 183.5 -75.5t74.5 -182.5v-1122q0 -106 -74.5 -182t-183.5 -76h-1122q-109 0 -183.5 76t-74.5 182zM1911 819q0 -106 76 -182l346 -346q23 -23 49 -23q29 0 52.5 22.5t23.5 51.5t-23 51l-325 326q-23 23 -25 29h1084 q33 0 52 21.5t19 50t-19.5 50t-51.5 21.5h-1084q2 6 25 29l325 325q23 23 23 51.5t-22.5 51t-51.5 22.5t-51 -22l-346 -347q-76 -73 -76 -182zM88 258v1122q0 106 75 182t183 76h1122q109 0 183.5 -75.5t74.5 -182.5v-1122q0 -106 -74.5 -182t-183.5 -76h-1122 q-109 0 -183.5 76t-74.5 182zM596 776q0 -125 88 -212t215 -87t216 87t89 212q0 94 -54 170t-140 109v41h-58v116h27q49 16 94 17q39 0 88 -17h43v101h-41q-45 -23 -88 -23q-45 0 -96 23h-27v12h-106v-12h-31q-49 -23 -90 -23q-45 0 -94 23h-35v-101h35q53 16 96 17 q45 0 90 -17h29v-116h-58v-41q-86 -33 -139 -109t-53 -170zM657 776q0 -98 71 -167.5t171 -69.5t172 69.5t72 167.5t-72 169t-172 71t-171 -71t-71 -169zM846 338q0 -20 16.5 -35.5t37 -15.5t36.5 14t16 35q0 23 -20.5 78t-32.5 55t-32.5 -53t-20.5 -78zM899 297q45 2 47 39 h-2q-2 -10 -7 -15.5t-17.5 -10.5t-16.5 -7z" />
<glyph unicode="&#xe000;" horiz-adv-x="1640" d="M0 1640h1640v-1640h-1640v1640z" />
<glyph unicode="&#xfb01;" horiz-adv-x="3645" d="M1911 258v1122q0 106 75 182t183 76h438v-143h-409q-59 0 -101.5 -42t-42.5 -101v-1065q0 -59 42 -101.5t102 -42.5h1065q59 0 101 42t42 102v409h143v-438q0 -106 -74.5 -182t-183.5 -76h-1122q-109 0 -183.5 76t-74.5 182zM2239 401q0 29 24 54l1037 1036q-10 4 -37 4 h-533v143h561q109 0 183.5 -75.5t74.5 -182.5v-561h-143v533q0 27 -4 37l-1040 -1041q-20 -20 -49 -20t-51.5 21t-22.5 52zM88 258v561h143v-532q0 -27 5 -37l1040 1040q20 20 49 20.5t51.5 -21t22.5 -52.5q0 -29 -25 -53l-1036 -1037q10 -4 37 -4h532v-143h-561 q-109 0 -183.5 76t-74.5 182zM88 942v438q0 106 75 182t183 76h1122q109 0 183.5 -75.5t74.5 -182.5v-1122q0 -106 -74.5 -182t-183.5 -76h-438v143h410q59 0 101 42t42 102v1065q0 57 -48 98t-110 41h-1075q-57 0 -88 -38t-31 -101v-410h-143z" />
<glyph unicode="&#xfb02;" horiz-adv-x="3645" d="M1911 258v1122q0 106 75 182t183 76h1122q109 0 183.5 -75.5t74.5 -182.5v-319l-143 143v148q0 61 -42 102t-101 41h-1065q-59 0 -101.5 -42t-42.5 -101v-1065q0 -59 42 -101.5t102 -42.5h1065q59 0 101 42t42 102v147l143 144v-320q0 -106 -74.5 -182t-183.5 -76h-1122 q-109 0 -183.5 76t-74.5 182zM2220 819.5q0 28.5 19.5 50t52.5 21.5h1083q-2 6 -24 29l-326 325q-23 23 -22.5 51.5t23 51t51 22.5t51.5 -22l346 -347q76 -74 75 -182q0 -106 -75 -182l-346 -346q-23 -23 -50 -23q-29 0 -52 22.5t-23 51.5t22 51l326 326q23 23 24 29h-1083 q-33 0 -52.5 21.5t-19.5 50zM88 258v561h143v-532q0 -27 5 -37l1040 1040q20 20 49 20.5t51.5 -21t22.5 -52.5q0 -29 -25 -53l-1036 -1037q10 -4 37 -4h532v-143h-561q-109 0 -183.5 76t-74.5 182zM88 942v438q0 106 75 182t183 76h1122q109 0 183.5 -75.5t74.5 -182.5 v-1122q0 -106 -74.5 -182t-183.5 -76h-438v143h410q59 0 101 42t42 102v1065q0 57 -48 98t-110 41h-1075q-57 0 -88 -38t-31 -101v-410h-143z" />
<glyph unicode="&#xfb03;" horiz-adv-x="5468" d="M3733 258v1122q0 106 75 182t183 76h438v-143h-409q-59 0 -101.5 -42t-42.5 -101v-1065q0 -59 42 -101.5t102 -42.5h1065q59 0 101 42t42 102v409h143v-438q0 -106 -74.5 -182t-183.5 -76h-1122q-109 0 -183.5 76t-74.5 182zM4061 401q0 29 24 54l1037 1036q-10 4 -37 4 h-533v143h561q109 0 183.5 -75.5t74.5 -182.5v-561h-143v533q0 27 -4 37l-1040 -1041q-20 -20 -49 -20t-51.5 21t-22.5 52zM1911 258v561h143v-532q0 -27 5 -37l1040 1040q20 20 49 20.5t51.5 -21t22.5 -52.5q0 -29 -25 -53l-1036 -1037q10 -4 37 -4h532v-143h-561 q-109 0 -183.5 76t-74.5 182zM1911 942v438q0 106 75 182t183 76h1122q109 0 183.5 -75.5t74.5 -182.5v-1122q0 -106 -74.5 -182t-183.5 -76h-438v143h410q59 0 101 42t42 102v1065q0 57 -48 98t-110 41h-1075q-57 0 -88 -38t-31 -101v-410h-143zM88 258v561h143v-532 q0 -27 5 -37l1040 1040q20 20 49 20.5t51.5 -21t22.5 -52.5q0 -29 -25 -53l-1036 -1037q10 -4 37 -4h532v-143h-561q-109 0 -183.5 76t-74.5 182zM88 942v438q0 106 75 182t183 76h1122q109 0 183.5 -75.5t74.5 -182.5v-1122q0 -106 -74.5 -182t-183.5 -76h-438v143h410 q59 0 101 42t42 102v1065q0 57 -48 98t-110 41h-1075q-57 0 -88 -38t-31 -101v-410h-143z" />
<glyph unicode="&#xfb04;" horiz-adv-x="5468" d="M3733 258v1122q0 106 75 182t183 76h1122q109 0 183.5 -75.5t74.5 -182.5v-319l-143 143v148q0 61 -42 102t-101 41h-1065q-59 0 -101.5 -42t-42.5 -101v-1065q0 -59 42 -101.5t102 -42.5h1065q59 0 101 42t42 102v147l143 144v-320q0 -106 -74.5 -182t-183.5 -76h-1122 q-109 0 -183.5 76t-74.5 182zM4042 819.5q0 28.5 19.5 50t52.5 21.5h1083q-2 6 -24 29l-326 325q-23 23 -22.5 51.5t23 51t51 22.5t51.5 -22l346 -347q76 -74 75 -182q0 -106 -75 -182l-346 -346q-23 -23 -50 -23q-29 0 -52 22.5t-23 51.5t22 51l326 326q23 23 24 29h-1083 q-33 0 -52.5 21.5t-19.5 50zM1911 258v561h143v-532q0 -27 5 -37l1040 1040q20 20 49 20.5t51.5 -21t22.5 -52.5q0 -29 -25 -53l-1036 -1037q10 -4 37 -4h532v-143h-561q-109 0 -183.5 76t-74.5 182zM1911 942v438q0 106 75 182t183 76h1122q109 0 183.5 -75.5t74.5 -182.5 v-1122q0 -106 -74.5 -182t-183.5 -76h-438v143h410q59 0 101 42t42 102v1065q0 57 -48 98t-110 41h-1075q-57 0 -88 -38t-31 -101v-410h-143zM88 258v561h143v-532q0 -27 5 -37l1040 1040q20 20 49 20.5t51.5 -21t22.5 -52.5q0 -29 -25 -53l-1036 -1037q10 -4 37 -4h532 v-143h-561q-109 0 -183.5 76t-74.5 182zM88 942v438q0 106 75 182t183 76h1122q109 0 183.5 -75.5t74.5 -182.5v-1122q0 -106 -74.5 -182t-183.5 -76h-438v143h410q59 0 101 42t42 102v1065q0 57 -48 98t-110 41h-1075q-57 0 -88 -38t-31 -101v-410h-143z" />
</font>
</defs>
</svg>
